<?xml version="1.0" encoding="UTF-8" standalone="no"?>
<!DOCTYPE svg PUBLIC "-//W3C//DTD SVG 1.1//EN"
 "http://www.w3.org/Graphics/SVG/1.1/DTD/svg11.dtd">
<!-- Generated by graphviz version 12.2.1 (0)
 -->
<!-- Pages: 1 -->
<svg width="1761pt" height="1052pt"
 viewBox="0.00 0.00 1761.00 1052.00" xmlns="http://www.w3.org/2000/svg" xmlns:xlink="http://www.w3.org/1999/xlink">
<g id="graph0" class="graph" transform="scale(1 1) rotate(0) translate(4 1048)">
<polygon fill="white" stroke="none" points="-4,4 -4,-1048 1757,-1048 1757,4 -4,4"/>
<!-- 0 -->
<g id="node1" class="node">
<title>0</title>
<polygon fill="none" stroke="black" points="329,-468 275,-468 275,-432 329,-432 329,-468"/>
<text text-anchor="middle" x="302" y="-445.32" font-family="Times,serif" font-size="14.00">args</text>
</g>
<!-- 1 -->
<g id="node2" class="node">
<title>1</title>
<polygon fill="none" stroke="black" points="325.12,-324 240.88,-324 240.88,-288 325.12,-288 325.12,-324"/>
<text text-anchor="middle" x="283" y="-301.32" font-family="Times,serif" font-size="14.00">hardware</text>
</g>
<!-- 0&#45;&gt;1 -->
<g id="edge1" class="edge">
<title>0&#45;&gt;1</title>
<path fill="none" stroke="black" d="M299.67,-431.59C296.46,-407.61 290.65,-364.14 286.8,-335.42"/>
<polygon fill="black" stroke="black" points="290.29,-335.06 285.49,-325.61 283.35,-335.99 290.29,-335.06"/>
</g>
<!-- 2 -->
<g id="node3" class="node">
<title>2</title>
<polygon fill="none" stroke="black" points="285,-36 231,-36 231,0 285,0 285,-36"/>
<text text-anchor="middle" x="258" y="-13.32" font-family="Times,serif" font-size="14.00">id</text>
</g>
<!-- 0&#45;&gt;2 -->
<g id="edge2" class="edge">
<title>0&#45;&gt;2</title>
<path fill="none" stroke="black" d="M306.45,-431.62C315.24,-397.27 334,-324 334,-324 334,-324 334,-288 334,-288 334,-288 285.43,-116.08 265.94,-47.12"/>
<polygon fill="black" stroke="black" points="269.37,-46.36 263.28,-37.69 262.63,-48.27 269.37,-46.36"/>
</g>
<!-- 4 -->
<g id="node5" class="node">
<title>4</title>
<polygon fill="none" stroke="black" points="1157,-324 1103,-324 1103,-288 1157,-288 1157,-324"/>
<text text-anchor="middle" x="1130" y="-301.32" font-family="Times,serif" font-size="14.00">net</text>
</g>
<!-- 0&#45;&gt;4 -->
<g id="edge3" class="edge">
<title>0&#45;&gt;4</title>
<path fill="none" stroke="black" d="M329.08,-444.36C450.93,-423.46 948.7,-338.09 1091.52,-313.6"/>
<polygon fill="black" stroke="black" points="1091.95,-317.08 1101.22,-311.94 1090.77,-310.18 1091.95,-317.08"/>
</g>
<!-- 1&#45;&gt;2 -->
<g id="edge4" class="edge">
<title>1&#45;&gt;2</title>
<path fill="none" stroke="black" d="M281.47,-287.54C277.3,-239.76 265.65,-106.51 260.5,-47.61"/>
<polygon fill="black" stroke="black" points="264,-47.4 259.64,-37.74 257.02,-48.01 264,-47.4"/>
</g>
<!-- 3 -->
<g id="node4" class="node">
<title>3</title>
<polygon fill="none" stroke="black" points="257,-180 203,-180 203,-144 257,-144 257,-180"/>
<text text-anchor="middle" x="230" y="-157.32" font-family="Times,serif" font-size="14.00">sysfs</text>
</g>
<!-- 1&#45;&gt;3 -->
<g id="edge5" class="edge">
<title>1&#45;&gt;3</title>
<path fill="none" stroke="black" d="M276.5,-287.59C267.47,-263.4 251.04,-219.36 240.32,-190.65"/>
<polygon fill="black" stroke="black" points="243.69,-189.67 236.92,-181.53 237.13,-192.12 243.69,-189.67"/>
</g>
<!-- 3&#45;&gt;2 -->
<g id="edge6" class="edge">
<title>3&#45;&gt;2</title>
<path fill="none" stroke="black" d="M233.43,-143.59C238.18,-119.5 246.81,-75.75 252.47,-47.03"/>
<polygon fill="black" stroke="black" points="255.83,-48.08 254.33,-37.6 248.96,-46.73 255.83,-48.08"/>
</g>
<!-- 4&#45;&gt;2 -->
<g id="edge9" class="edge">
<title>4&#45;&gt;2</title>
<path fill="none" stroke="black" d="M1102.95,-296.13C976.45,-254.64 443.27,-79.77 295.89,-31.43"/>
<polygon fill="black" stroke="black" points="297.2,-28.17 286.61,-28.38 295.02,-34.82 297.2,-28.17"/>
</g>
<!-- 5 -->
<g id="node6" class="node">
<title>5</title>
<polygon fill="none" stroke="black" points="1562.88,-36 1459.12,-36 1459.12,0 1562.88,0 1562.88,-36"/>
<text text-anchor="middle" x="1511" y="-13.32" font-family="Times,serif" font-size="14.00">concurrency</text>
</g>
<!-- 4&#45;&gt;5 -->
<g id="edge7" class="edge">
<title>4&#45;&gt;5</title>
<path fill="none" stroke="black" d="M1150.55,-287.77C1200.08,-246.24 1322,-144 1322,-144 1322,-144 1420.59,-78.79 1475.36,-42.57"/>
<polygon fill="black" stroke="black" points="1477.05,-45.65 1483.46,-37.22 1473.19,-39.81 1477.05,-45.65"/>
</g>
<!-- 6 -->
<g id="node7" class="node">
<title>6</title>
<polygon fill="none" stroke="black" points="1407.38,-180 1330.62,-180 1330.62,-144 1407.38,-144 1407.38,-180"/>
<text text-anchor="middle" x="1369" y="-157.32" font-family="Times,serif" font-size="14.00">flow&#45;info</text>
</g>
<!-- 4&#45;&gt;6 -->
<g id="edge8" class="edge">
<title>4&#45;&gt;6</title>
<path fill="none" stroke="black" d="M1157.42,-288.71C1199.77,-263.55 1281.28,-215.12 1329.84,-186.27"/>
<polygon fill="black" stroke="black" points="1331.56,-189.32 1338.37,-181.2 1327.99,-183.3 1331.56,-189.32"/>
</g>
<!-- 7 -->
<g id="node8" class="node">
<title>7</title>
<polygon fill="none" stroke="black" points="979.38,-36 908.62,-36 908.62,0 979.38,0 979.38,-36"/>
<text text-anchor="middle" x="944" y="-13.32" font-family="Times,serif" font-size="14.00">tracectl</text>
</g>
<!-- 4&#45;&gt;7 -->
<g id="edge10" class="edge">
<title>4&#45;&gt;7</title>
<path fill="none" stroke="black" d="M1123.04,-287.77C1106.28,-246.24 1065,-144 1065,-144 1065,-144 1004.21,-81.2 968.81,-44.63"/>
<polygon fill="black" stroke="black" points="971.35,-42.22 961.88,-37.47 966.32,-47.09 971.35,-42.22"/>
</g>
<!-- 6&#45;&gt;5 -->
<g id="edge11" class="edge">
<title>6&#45;&gt;5</title>
<path fill="none" stroke="black" d="M1386.41,-143.59C1411.35,-118.65 1457.38,-72.62 1485.97,-44.03"/>
<polygon fill="black" stroke="black" points="1488.22,-46.73 1492.82,-37.18 1483.27,-41.78 1488.22,-46.73"/>
</g>
<!-- 6&#45;&gt;7 -->
<g id="edge12" class="edge">
<title>6&#45;&gt;7</title>
<path fill="none" stroke="black" d="M1330.16,-148.02C1251.71,-121.81 1074.7,-62.67 990.37,-34.49"/>
<polygon fill="black" stroke="black" points="991.61,-31.22 981.02,-31.37 989.39,-37.86 991.61,-31.22"/>
</g>
<!-- 8 -->
<g id="node9" class="node">
<title>8</title>
<polygon fill="none" stroke="black" points="669,-468 615,-468 615,-432 669,-432 669,-468"/>
<text text-anchor="middle" x="642" y="-445.32" font-family="Times,serif" font-size="14.00">cli</text>
</g>
<!-- 9 -->
<g id="node10" class="node">
<title>9</title>
<polygon fill="none" stroke="black" points="783.38,-468 724.62,-468 724.62,-432 783.38,-432 783.38,-468"/>
<text text-anchor="middle" x="754" y="-445.32" font-family="Times,serif" font-size="14.00">config</text>
</g>
<!-- 9&#45;&gt;1 -->
<g id="edge13" class="edge">
<title>9&#45;&gt;1</title>
<path fill="none" stroke="black" d="M724.18,-440.01C646.29,-416.53 435.93,-353.11 336.48,-323.12"/>
<polygon fill="black" stroke="black" points="337.52,-319.78 326.93,-320.25 335.5,-326.48 337.52,-319.78"/>
</g>
<!-- 9&#45;&gt;4 -->
<g id="edge15" class="edge">
<title>9&#45;&gt;4</title>
<path fill="none" stroke="black" d="M783.82,-437.74C851.7,-412.1 1017.62,-349.44 1092.39,-321.2"/>
<polygon fill="black" stroke="black" points="1093.2,-324.64 1101.32,-317.83 1090.73,-318.09 1093.2,-324.64"/>
</g>
<!-- 9&#45;&gt;7 -->
<g id="edge16" class="edge">
<title>9&#45;&gt;7</title>
<path fill="none" stroke="black" d="M756.44,-431.73C765.53,-367.21 797,-144 797,-144 797,-144 872.1,-80.14 914.95,-43.71"/>
<polygon fill="black" stroke="black" points="917.06,-46.51 922.41,-37.36 912.52,-41.17 917.06,-46.51"/>
</g>
<!-- 10 -->
<g id="node11" class="node">
<title>10</title>
<polygon fill="none" stroke="black" points="511,-324 457,-324 457,-288 511,-288 511,-324"/>
<text text-anchor="middle" x="484" y="-301.32" font-family="Times,serif" font-size="14.00">lpm</text>
</g>
<!-- 9&#45;&gt;10 -->
<g id="edge14" class="edge">
<title>9&#45;&gt;10</title>
<path fill="none" stroke="black" d="M724.33,-433.4C674.79,-407.34 575.31,-355.02 521.17,-326.55"/>
<polygon fill="black" stroke="black" points="523.11,-323.61 512.63,-322.06 519.85,-329.81 523.11,-323.61"/>
</g>
<!-- 10&#45;&gt;7 -->
<g id="edge17" class="edge">
<title>10&#45;&gt;7</title>
<path fill="none" stroke="black" d="M511.4,-287.97C589.98,-239.11 816.23,-98.44 906.33,-42.42"/>
<polygon fill="black" stroke="black" points="907.94,-45.54 914.59,-37.29 904.25,-39.6 907.94,-45.54"/>
</g>
<!-- 11 -->
<g id="node12" class="node">
<title>11</title>
<polygon fill="none" stroke="black" points="1178.5,-468 1105.5,-468 1105.5,-432 1178.5,-432 1178.5,-468"/>
<text text-anchor="middle" x="1142" y="-445.32" font-family="Times,serif" font-size="14.00">pipeline</text>
</g>
<!-- 11&#45;&gt;2 -->
<g id="edge18" class="edge">
<title>11&#45;&gt;2</title>
<path fill="none" stroke="black" d="M1106.25,-431.61C964.29,-362.56 441.01,-108.02 295.67,-37.32"/>
<polygon fill="black" stroke="black" points="297.36,-34.25 286.84,-33.03 294.3,-40.55 297.36,-34.25"/>
</g>
<!-- 11&#45;&gt;4 -->
<g id="edge19" class="edge">
<title>11&#45;&gt;4</title>
<path fill="none" stroke="black" d="M1140.53,-431.59C1138.5,-407.61 1134.83,-364.14 1132.4,-335.42"/>
<polygon fill="black" stroke="black" points="1135.9,-335.29 1131.57,-325.62 1128.93,-335.88 1135.9,-335.29"/>
</g>
<!-- 11&#45;&gt;7 -->
<g id="edge20" class="edge">
<title>11&#45;&gt;7</title>
<path fill="none" stroke="black" d="M1134.81,-431.73C1107.94,-367.21 1015,-144 1015,-144 1015,-144 980.23,-82.78 959.35,-46.03"/>
<polygon fill="black" stroke="black" points="962.6,-44.66 954.62,-37.7 956.52,-48.12 962.6,-44.66"/>
</g>
<!-- 12 -->
<g id="node13" class="node">
<title>12</title>
<polygon fill="none" stroke="black" points="1025.25,-1044 938.75,-1044 938.75,-1008 1025.25,-1008 1025.25,-1044"/>
<text text-anchor="middle" x="982" y="-1021.33" font-family="Times,serif" font-size="14.00">dataplane</text>
</g>
<!-- 12&#45;&gt;0 -->
<g id="edge21" class="edge">
<title>12&#45;&gt;0</title>
<path fill="none" stroke="black" d="M938.46,-1018.41C768.1,-992.63 156,-900 156,-900 156,-900 57,-756 57,-756 57,-756 57,-720 57,-720 57,-720 217.49,-543.79 278.68,-476.6"/>
<polygon fill="black" stroke="black" points="281.14,-479.11 285.28,-469.36 275.96,-474.39 281.14,-479.11"/>
</g>
<!-- 12&#45;&gt;2 -->
<g id="edge24" class="edge">
<title>12&#45;&gt;2</title>
<path fill="none" stroke="black" d="M938.48,-1018.63C764.45,-993.16 128,-900 128,-900 128,-900 0,-739 0,-739 0,-739 0,-739 0,-305 0,-305 171.27,-115.14 234.72,-44.8"/>
<polygon fill="black" stroke="black" points="237.14,-47.35 241.24,-37.58 231.94,-42.66 237.14,-47.35"/>
</g>
<!-- 12&#45;&gt;4 -->
<g id="edge27" class="edge">
<title>12&#45;&gt;4</title>
<path fill="none" stroke="black" d="M1025.73,-1011.27C1129.12,-978.79 1380,-900 1380,-900 1380,-900 1467,-756 1467,-756 1467,-756 1549,-612 1549,-612 1549,-612 1620,-468 1620,-468 1620,-468 1620,-432 1620,-432 1620,-432 1284.06,-346.3 1168.5,-316.82"/>
<polygon fill="black" stroke="black" points="1169.42,-313.44 1158.86,-314.36 1167.69,-320.23 1169.42,-313.44"/>
</g>
<!-- 12&#45;&gt;5 -->
<g id="edge22" class="edge">
<title>12&#45;&gt;5</title>
<path fill="none" stroke="black" d="M1025.57,-1012.09C1133.39,-980.16 1404,-900 1404,-900 1404,-900 1753,-739 1753,-739 1753,-739 1753,-739 1753,-305 1753,-305 1593.01,-115.92 1533.2,-45.24"/>
<polygon fill="black" stroke="black" points="1535.88,-42.99 1526.75,-37.62 1530.54,-47.51 1535.88,-42.99"/>
</g>
<!-- 12&#45;&gt;7 -->
<g id="edge32" class="edge">
<title>12&#45;&gt;7</title>
<path fill="none" stroke="black" d="M938.5,-1008.07C780.6,-946.63 247,-739 247,-739 247,-739 247,-739 247,-593 247,-593 266,-432 266,-432 266,-432 621,-144 621,-144 621,-144 808.16,-71.57 897.55,-36.98"/>
<polygon fill="black" stroke="black" points="898.72,-40.27 906.79,-33.4 896.2,-33.75 898.72,-40.27"/>
</g>
<!-- 12&#45;&gt;11 -->
<g id="edge28" class="edge">
<title>12&#45;&gt;11</title>
<path fill="none" stroke="black" d="M1001.05,-1007.62C1038.69,-973.27 1119,-900 1119,-900 1119,-900 1264,-756 1264,-756 1264,-756 1264,-720 1264,-720 1264,-720 1199,-576 1199,-576 1199,-576 1171.32,-515.3 1154.54,-478.5"/>
<polygon fill="black" stroke="black" points="1157.89,-477.4 1150.55,-469.76 1151.52,-480.31 1157.89,-477.4"/>
</g>
<!-- 13 -->
<g id="node14" class="node">
<title>13</title>
<polygon fill="none" stroke="black" points="219,-900 165,-900 165,-864 219,-864 219,-900"/>
<text text-anchor="middle" x="192" y="-877.33" font-family="Times,serif" font-size="14.00">dpdk</text>
</g>
<!-- 12&#45;&gt;13 -->
<g id="edge23" class="edge">
<title>12&#45;&gt;13</title>
<path fill="none" stroke="black" d="M938.49,-1017.74C778.64,-991.06 233,-900 233,-900 233,-900 231.63,-899.43 229.38,-898.5"/>
<polygon fill="black" stroke="black" points="231.1,-895.42 220.52,-894.82 228.41,-901.89 231.1,-895.42"/>
</g>
<!-- 16 -->
<g id="node17" class="node">
<title>16</title>
<polygon fill="none" stroke="black" points="1011,-900 953,-900 953,-864 1011,-864 1011,-900"/>
<text text-anchor="middle" x="982" y="-877.33" font-family="Times,serif" font-size="14.00">mgmt</text>
</g>
<!-- 12&#45;&gt;16 -->
<g id="edge25" class="edge">
<title>12&#45;&gt;16</title>
<path fill="none" stroke="black" d="M982,-1007.59C982,-983.61 982,-940.14 982,-911.42"/>
<polygon fill="black" stroke="black" points="985.5,-911.62 982,-901.62 978.5,-911.62 985.5,-911.62"/>
</g>
<!-- 19 -->
<g id="node20" class="node">
<title>19</title>
<polygon fill="none" stroke="black" points="1255,-756 1201,-756 1201,-720 1255,-720 1255,-756"/>
<text text-anchor="middle" x="1228" y="-733.33" font-family="Times,serif" font-size="14.00">nat</text>
</g>
<!-- 12&#45;&gt;19 -->
<g id="edge26" class="edge">
<title>12&#45;&gt;19</title>
<path fill="none" stroke="black" d="M997.02,-1007.54C1038.8,-958.96 1156.59,-822.02 1205.88,-764.72"/>
<polygon fill="black" stroke="black" points="1208.32,-767.24 1212.19,-757.38 1203.02,-762.68 1208.32,-767.24"/>
</g>
<!-- 20 -->
<g id="node21" class="node">
<title>20</title>
<polygon fill="none" stroke="black" points="1044.88,-612 965.12,-612 965.12,-576 1044.88,-576 1044.88,-612"/>
<text text-anchor="middle" x="1005" y="-589.33" font-family="Times,serif" font-size="14.00">pkt&#45;meta</text>
</g>
<!-- 12&#45;&gt;20 -->
<g id="edge29" class="edge">
<title>12&#45;&gt;20</title>
<path fill="none" stroke="black" d="M976.72,-1007.62C966.27,-973.27 944,-900 944,-900 944,-900 944,-864 944,-864 944,-864 946,-720 946,-720 946,-720 974.65,-659.3 992.02,-622.5"/>
<polygon fill="black" stroke="black" points="995.05,-624.29 996.15,-613.75 988.72,-621.3 995.05,-624.29"/>
</g>
<!-- 21 -->
<g id="node22" class="node">
<title>21</title>
<polygon fill="none" stroke="black" points="563.25,-612 494.75,-612 494.75,-576 563.25,-576 563.25,-612"/>
<text text-anchor="middle" x="529" y="-589.33" font-family="Times,serif" font-size="14.00">routing</text>
</g>
<!-- 12&#45;&gt;21 -->
<g id="edge30" class="edge">
<title>12&#45;&gt;21</title>
<path fill="none" stroke="black" d="M963.8,-1007.76C901.12,-948.39 698,-756 698,-756 698,-756 602.89,-665.39 555.37,-620.12"/>
<polygon fill="black" stroke="black" points="557.84,-617.64 548.18,-613.27 553.01,-622.71 557.84,-617.64"/>
</g>
<!-- 23 -->
<g id="node24" class="node">
<title>23</title>
<polygon fill="none" stroke="black" points="1500,-612 1446,-612 1446,-576 1500,-576 1500,-612"/>
<text text-anchor="middle" x="1473" y="-589.33" font-family="Times,serif" font-size="14.00">stats</text>
</g>
<!-- 12&#45;&gt;23 -->
<g id="edge31" class="edge">
<title>12&#45;&gt;23</title>
<path fill="none" stroke="black" d="M1025.64,-1009.55C1120.08,-976.1 1335,-900 1335,-900 1335,-900 1426.75,-697.23 1460.62,-622.35"/>
<polygon fill="black" stroke="black" points="1463.63,-624.2 1464.56,-613.65 1457.25,-621.32 1463.63,-624.2"/>
</g>
<!-- 24 -->
<g id="node25" class="node">
<title>24</title>
<polygon fill="none" stroke="black" points="1610.75,-468 1539.25,-468 1539.25,-432 1610.75,-432 1610.75,-468"/>
<text text-anchor="middle" x="1575" y="-445.32" font-family="Times,serif" font-size="14.00">vpcmap</text>
</g>
<!-- 12&#45;&gt;24 -->
<g id="edge33" class="edge">
<title>12&#45;&gt;24</title>
<path fill="none" stroke="black" d="M1025.63,-1010.42C1124.29,-977.44 1356,-900 1356,-900 1356,-900 1530,-612 1530,-612 1530,-612 1554.18,-525.48 1567.09,-479.29"/>
<polygon fill="black" stroke="black" points="1570.46,-480.26 1569.78,-469.69 1563.71,-478.38 1570.46,-480.26"/>
</g>
<!-- 13&#45;&gt;4 -->
<g id="edge36" class="edge">
<title>13&#45;&gt;4</title>
<path fill="none" stroke="black" d="M219.31,-864.29C353.25,-782.32 940.37,-423.04 1093.41,-329.39"/>
<polygon fill="black" stroke="black" points="1094.86,-332.6 1101.57,-324.4 1091.21,-326.63 1094.86,-332.6"/>
</g>
<!-- 14 -->
<g id="node15" class="node">
<title>14</title>
<polygon fill="none" stroke="black" points="145.5,-756 66.5,-756 66.5,-720 145.5,-720 145.5,-756"/>
<text text-anchor="middle" x="106" y="-733.33" font-family="Times,serif" font-size="14.00">dpdk&#45;sys</text>
</g>
<!-- 13&#45;&gt;14 -->
<g id="edge34" class="edge">
<title>13&#45;&gt;14</title>
<path fill="none" stroke="black" d="M181.45,-863.59C166.67,-839.18 139.66,-794.58 122.29,-765.89"/>
<polygon fill="black" stroke="black" points="125.32,-764.15 117.15,-757.41 119.33,-767.77 125.32,-764.15"/>
</g>
<!-- 15 -->
<g id="node16" class="node">
<title>15</title>
<polygon fill="none" stroke="black" points="218.5,-756 163.5,-756 163.5,-720 218.5,-720 218.5,-756"/>
<text text-anchor="middle" x="191" y="-733.33" font-family="Times,serif" font-size="14.00">errno</text>
</g>
<!-- 13&#45;&gt;15 -->
<g id="edge35" class="edge">
<title>13&#45;&gt;15</title>
<path fill="none" stroke="black" d="M191.88,-863.59C191.71,-839.61 191.4,-796.14 191.2,-767.42"/>
<polygon fill="black" stroke="black" points="194.7,-767.6 191.13,-757.62 187.7,-767.65 194.7,-767.6"/>
</g>
<!-- 16&#45;&gt;0 -->
<g id="edge37" class="edge">
<title>16&#45;&gt;0</title>
<path fill="none" stroke="black" d="M952.8,-874.89C832.94,-849.79 385,-756 385,-756 385,-756 330.27,-554.89 309.7,-479.28"/>
<polygon fill="black" stroke="black" points="313.1,-478.46 307.1,-469.73 306.35,-480.3 313.1,-478.46"/>
</g>
<!-- 16&#45;&gt;2 -->
<g id="edge40" class="edge">
<title>16&#45;&gt;2</title>
<path fill="none" stroke="black" d="M952.58,-874.97C830.73,-850 372,-756 372,-756 372,-756 156,-468 156,-468 156,-468 156,-432 156,-432 156,-432 190,-144 190,-144 190,-144 223.3,-82.78 243.3,-46.03"/>
<polygon fill="black" stroke="black" points="246.12,-48.17 247.82,-37.71 239.97,-44.82 246.12,-48.17"/>
</g>
<!-- 16&#45;&gt;4 -->
<g id="edge44" class="edge">
<title>16&#45;&gt;4</title>
<path fill="none" stroke="black" d="M1002.86,-863.62C1044.07,-829.27 1132,-756 1132,-756 1132,-756 1171,-612 1171,-612 1171,-612 1188,-468 1188,-468 1188,-468 1188,-432 1188,-432 1188,-432 1159.84,-371.3 1142.76,-334.5"/>
<polygon fill="black" stroke="black" points="1146.09,-333.35 1138.7,-325.75 1139.74,-336.3 1146.09,-333.35"/>
</g>
<!-- 16&#45;&gt;5 -->
<g id="edge38" class="edge">
<title>16&#45;&gt;5</title>
<path fill="none" stroke="black" d="M1011.21,-870.77C1096.48,-840.92 1339,-756 1339,-756 1339,-756 1530,-612 1530,-612 1530,-612 1634,-468 1634,-468 1634,-468 1634,-432 1634,-432 1634,-432 1601,-288 1601,-288 1601,-288 1563,-144 1563,-144 1563,-144 1537.97,-83.82 1522.64,-46.97"/>
<polygon fill="black" stroke="black" points="1525.88,-45.67 1518.81,-37.78 1519.42,-48.36 1525.88,-45.67"/>
</g>
<!-- 16&#45;&gt;7 -->
<g id="edge49" class="edge">
<title>16&#45;&gt;7</title>
<path fill="none" stroke="black" d="M975.08,-863.61C943.09,-783.16 811,-451 811,-451 811,-451 811,-451 811,-305 811,-305 897.86,-118.22 931.19,-46.55"/>
<polygon fill="black" stroke="black" points="934.2,-48.38 935.24,-37.83 927.85,-45.42 934.2,-48.38"/>
</g>
<!-- 16&#45;&gt;9 -->
<g id="edge39" class="edge">
<title>16&#45;&gt;9</title>
<path fill="none" stroke="black" d="M967.68,-863.62C939.38,-829.27 879,-756 879,-756 879,-756 797,-612 797,-612 797,-612 773.89,-525.48 761.56,-479.29"/>
<polygon fill="black" stroke="black" points="764.95,-478.45 758.99,-469.69 758.19,-480.26 764.95,-478.45"/>
</g>
<!-- 16&#45;&gt;10 -->
<g id="edge42" class="edge">
<title>16&#45;&gt;10</title>
<path fill="none" stroke="black" d="M952.68,-868.09C880.12,-836.16 698,-756 698,-756 698,-756 486,-612 486,-612 486,-612 448,-468 448,-468 448,-468 448,-432 448,-432 448,-432 465.33,-371.82 475.94,-334.97"/>
<polygon fill="black" stroke="black" points="479.17,-336.41 478.58,-325.84 472.44,-334.48 479.17,-336.41"/>
</g>
<!-- 17 -->
<g id="node18" class="node">
<title>17</title>
<polygon fill="none" stroke="black" points="1106.62,-756 959.38,-756 959.38,-720 1106.62,-720 1106.62,-756"/>
<text text-anchor="middle" x="1033" y="-733.33" font-family="Times,serif" font-size="14.00">interface&#45;manager</text>
</g>
<!-- 16&#45;&gt;17 -->
<g id="edge41" class="edge">
<title>16&#45;&gt;17</title>
<path fill="none" stroke="black" d="M988.25,-863.59C996.94,-839.4 1012.76,-795.36 1023.07,-766.65"/>
<polygon fill="black" stroke="black" points="1026.26,-768.13 1026.34,-757.54 1019.67,-765.76 1026.26,-768.13"/>
</g>
<!-- 18 -->
<g id="node19" class="node">
<title>18</title>
<polygon fill="none" stroke="black" points="1162.25,-612 1105.75,-612 1105.75,-576 1162.25,-576 1162.25,-612"/>
<text text-anchor="middle" x="1134" y="-589.33" font-family="Times,serif" font-size="14.00">rekon</text>
</g>
<!-- 16&#45;&gt;18 -->
<g id="edge46" class="edge">
<title>16&#45;&gt;18</title>
<path fill="none" stroke="black" d="M1000.63,-863.62C1037.45,-829.27 1116,-756 1116,-756 1116,-756 1125.63,-669.85 1130.8,-623.59"/>
<polygon fill="black" stroke="black" points="1134.27,-624.06 1131.91,-613.73 1127.32,-623.28 1134.27,-624.06"/>
</g>
<!-- 16&#45;&gt;19 -->
<g id="edge43" class="edge">
<title>16&#45;&gt;19</title>
<path fill="none" stroke="black" d="M1011.19,-864.15C1055.98,-838.3 1141.65,-788.85 1190.82,-760.46"/>
<polygon fill="black" stroke="black" points="1192.51,-763.53 1199.42,-755.49 1189.01,-757.46 1192.51,-763.53"/>
</g>
<!-- 16&#45;&gt;20 -->
<g id="edge45" class="edge">
<title>16&#45;&gt;20</title>
<path fill="none" stroke="black" d="M977.55,-863.62C968.76,-829.27 950,-756 950,-756 950,-756 950,-720 950,-720 950,-720 976.71,-659.3 992.9,-622.5"/>
<polygon fill="black" stroke="black" points="995.92,-624.33 996.74,-613.77 989.51,-621.51 995.92,-624.33"/>
</g>
<!-- 16&#45;&gt;21 -->
<g id="edge47" class="edge">
<title>16&#45;&gt;21</title>
<path fill="none" stroke="black" d="M952.62,-865.17C890.19,-831.53 750,-756 750,-756 750,-756 623.55,-663.88 561.95,-619.01"/>
<polygon fill="black" stroke="black" points="564.02,-616.18 553.87,-613.12 559.9,-621.84 564.02,-616.18"/>
</g>
<!-- 16&#45;&gt;23 -->
<g id="edge48" class="edge">
<title>16&#45;&gt;23</title>
<path fill="none" stroke="black" d="M1011.38,-867.98C1083.61,-835.96 1264,-756 1264,-756 1264,-756 1383.58,-663.88 1441.84,-619.01"/>
<polygon fill="black" stroke="black" points="1443.65,-622.03 1449.43,-613.15 1439.38,-616.48 1443.65,-622.03"/>
</g>
<!-- 16&#45;&gt;24 -->
<g id="edge50" class="edge">
<title>16&#45;&gt;24</title>
<path fill="none" stroke="black" d="M1011.44,-869.46C1090.41,-838.52 1301,-756 1301,-756 1301,-756 1509,-612 1509,-612 1509,-612 1544.77,-524.75 1563.64,-478.71"/>
<polygon fill="black" stroke="black" points="1566.81,-480.21 1567.36,-469.63 1560.33,-477.56 1566.81,-480.21"/>
</g>
<!-- 17&#45;&gt;4 -->
<g id="edge51" class="edge">
<title>17&#45;&gt;4</title>
<path fill="none" stroke="black" d="M1036.62,-719.73C1050.16,-655.21 1097,-432 1097,-432 1097,-432 1112.75,-372.34 1122.49,-335.45"/>
<polygon fill="black" stroke="black" points="1125.86,-336.41 1125.03,-325.84 1119.09,-334.62 1125.86,-336.41"/>
</g>
<!-- 17&#45;&gt;7 -->
<g id="edge53" class="edge">
<title>17&#45;&gt;7</title>
<path fill="none" stroke="black" d="M1022.29,-719.62C1001.14,-685.27 956,-612 956,-612 956,-612 946.98,-166.47 944.58,-47.77"/>
<polygon fill="black" stroke="black" points="948.08,-47.87 944.38,-37.94 941.09,-48.01 948.08,-47.87"/>
</g>
<!-- 17&#45;&gt;18 -->
<g id="edge52" class="edge">
<title>17&#45;&gt;18</title>
<path fill="none" stroke="black" d="M1045.38,-719.59C1062.9,-694.97 1095.02,-649.8 1115.41,-621.14"/>
<polygon fill="black" stroke="black" points="1118.01,-623.52 1120.95,-613.34 1112.3,-619.46 1118.01,-623.52"/>
</g>
<!-- 19&#45;&gt;4 -->
<g id="edge58" class="edge">
<title>19&#45;&gt;4</title>
<path fill="none" stroke="black" d="M1231.62,-719.62C1238.76,-685.27 1254,-612 1254,-612 1254,-612 1259,-468 1259,-468 1259,-468 1259,-432 1259,-432 1259,-432 1193.64,-368.67 1155.97,-332.16"/>
<polygon fill="black" stroke="black" points="1158.64,-329.88 1149.02,-325.43 1153.77,-334.91 1158.64,-329.88"/>
</g>
<!-- 19&#45;&gt;5 -->
<g id="edge54" class="edge">
<title>19&#45;&gt;5</title>
<path fill="none" stroke="black" d="M1255.46,-724.79C1326.16,-693.33 1509,-612 1509,-612 1509,-612 1620,-468 1620,-468 1620,-468 1620,-432 1620,-432 1620,-432 1543.24,-141.15 1518.55,-47.6"/>
<polygon fill="black" stroke="black" points="1521.94,-46.72 1516,-37.95 1515.17,-48.51 1521.94,-46.72"/>
</g>
<!-- 19&#45;&gt;6 -->
<g id="edge56" class="edge">
<title>19&#45;&gt;6</title>
<path fill="none" stroke="black" d="M1248.16,-719.62C1288,-685.27 1373,-612 1373,-612 1373,-612 1373,-432 1373,-432 1373,-432 1370.45,-260.78 1369.42,-191.55"/>
<polygon fill="black" stroke="black" points="1372.93,-191.7 1369.28,-181.75 1365.93,-191.8 1372.93,-191.7"/>
</g>
<!-- 19&#45;&gt;7 -->
<g id="edge61" class="edge">
<title>19&#45;&gt;7</title>
<path fill="none" stroke="black" d="M1233.7,-719.62C1244.97,-685.27 1269,-612 1269,-612 1269,-612 1273,-468 1273,-468 1273,-468 1273,-432 1273,-432 1273,-432 1086,-144 1086,-144 1086,-144 1013.75,-80.4 972.33,-43.93"/>
<polygon fill="black" stroke="black" points="974.7,-41.36 964.88,-37.38 970.07,-46.62 974.7,-41.36"/>
</g>
<!-- 19&#45;&gt;9 -->
<g id="edge55" class="edge">
<title>19&#45;&gt;9</title>
<path fill="none" stroke="black" d="M1200.67,-724.44C1131.7,-692.74 956,-612 956,-612 956,-612 840.9,-520.26 784.47,-475.28"/>
<polygon fill="black" stroke="black" points="786.8,-472.67 776.8,-469.17 782.44,-478.14 786.8,-472.67"/>
</g>
<!-- 19&#45;&gt;10 -->
<g id="edge57" class="edge">
<title>19&#45;&gt;10</title>
<path fill="none" stroke="black" d="M1200.72,-726.34C1123.33,-696.11 908,-612 908,-612 908,-612 716,-468 716,-468 716,-468 678,-432 678,-432 678,-432 576.8,-366.79 520.58,-330.57"/>
<polygon fill="black" stroke="black" points="522.55,-327.67 512.25,-325.2 518.76,-333.56 522.55,-327.67"/>
</g>
<!-- 19&#45;&gt;11 -->
<g id="edge59" class="edge">
<title>19&#45;&gt;11</title>
<path fill="none" stroke="black" d="M1222.75,-719.54C1208.35,-671.66 1168.15,-537.95 1150.49,-479.24"/>
<polygon fill="black" stroke="black" points="1153.85,-478.25 1147.62,-469.68 1147.15,-480.27 1153.85,-478.25"/>
</g>
<!-- 19&#45;&gt;20 -->
<g id="edge60" class="edge">
<title>19&#45;&gt;20</title>
<path fill="none" stroke="black" d="M1200.66,-719.59C1160.76,-694.18 1086.49,-646.89 1041.82,-618.44"/>
<polygon fill="black" stroke="black" points="1043.81,-615.56 1033.5,-613.15 1040.05,-621.47 1043.81,-615.56"/>
</g>
<!-- 20&#45;&gt;4 -->
<g id="edge66" class="edge">
<title>20&#45;&gt;4</title>
<path fill="none" stroke="black" d="M1011.21,-575.77C1026.17,-534.24 1063,-432 1063,-432 1063,-432 1095.53,-371.3 1115.26,-334.5"/>
<polygon fill="black" stroke="black" points="1118.33,-336.18 1119.97,-325.71 1112.16,-332.87 1118.33,-336.18"/>
</g>
<!-- 20&#45;&gt;5 -->
<g id="edge62" class="edge">
<title>20&#45;&gt;5</title>
<path fill="none" stroke="black" d="M1033.64,-575.62C1090.25,-541.27 1211,-468 1211,-468 1211,-468 1416,-180 1416,-180 1416,-180 1467.92,-92.01 1495,-46.12"/>
<polygon fill="black" stroke="black" points="1498,-47.92 1500.06,-37.53 1491.97,-44.37 1498,-47.92"/>
</g>
<!-- 20&#45;&gt;6 -->
<g id="edge64" class="edge">
<title>20&#45;&gt;6</title>
<path fill="none" stroke="black" d="M1030.45,-575.62C1080.73,-541.27 1188,-468 1188,-468 1188,-468 1308.83,-264.4 1353.04,-189.89"/>
<polygon fill="black" stroke="black" points="1355.88,-191.96 1357.98,-181.57 1349.86,-188.39 1355.88,-191.96"/>
</g>
<!-- 20&#45;&gt;7 -->
<g id="edge68" class="edge">
<title>20&#45;&gt;7</title>
<path fill="none" stroke="black" d="M1003.14,-575.51C994.46,-493.81 957.87,-149.5 947.03,-47.55"/>
<polygon fill="black" stroke="black" points="950.54,-47.43 946,-37.86 943.58,-48.17 950.54,-47.43"/>
</g>
<!-- 20&#45;&gt;9 -->
<g id="edge63" class="edge">
<title>20&#45;&gt;9</title>
<path fill="none" stroke="black" d="M974.22,-575.59C928.79,-549.88 843.75,-501.77 793.68,-473.45"/>
<polygon fill="black" stroke="black" points="795.6,-470.51 785.17,-468.64 792.15,-476.61 795.6,-470.51"/>
</g>
<!-- 20&#45;&gt;10 -->
<g id="edge65" class="edge">
<title>20&#45;&gt;10</title>
<path fill="none" stroke="black" d="M982.21,-575.77C927.26,-534.24 792,-432 792,-432 792,-432 525,-324 525,-324 525,-324 523.63,-323.43 521.38,-322.5"/>
<polygon fill="black" stroke="black" points="523.1,-319.42 512.52,-318.82 520.41,-325.89 523.1,-319.42"/>
</g>
<!-- 20&#45;&gt;11 -->
<g id="edge67" class="edge">
<title>20&#45;&gt;11</title>
<path fill="none" stroke="black" d="M1021.8,-575.59C1045.86,-550.65 1090.27,-504.62 1117.85,-476.03"/>
<polygon fill="black" stroke="black" points="1120.02,-478.83 1124.44,-469.2 1114.98,-473.97 1120.02,-478.83"/>
</g>
<!-- 21&#45;&gt;0 -->
<g id="edge69" class="edge">
<title>21&#45;&gt;0</title>
<path fill="none" stroke="black" d="M501.17,-575.59C460.44,-550.11 384.54,-502.63 339.11,-474.21"/>
<polygon fill="black" stroke="black" points="340.97,-471.25 330.64,-468.91 337.26,-477.18 340.97,-471.25"/>
</g>
<!-- 21&#45;&gt;4 -->
<g id="edge74" class="edge">
<title>21&#45;&gt;4</title>
<path fill="none" stroke="black" d="M563.65,-576.53C635.07,-542.59 792,-468 792,-468 792,-468 1004.1,-366.97 1092.27,-324.97"/>
<polygon fill="black" stroke="black" points="1093.74,-328.15 1101.26,-320.69 1090.73,-321.83 1093.74,-328.15"/>
</g>
<!-- 21&#45;&gt;7 -->
<g id="edge75" class="edge">
<title>21&#45;&gt;7</title>
<path fill="none" stroke="black" d="M517.74,-575.62C495.48,-541.27 448,-468 448,-468 448,-468 448,-288 448,-288 448,-288 682,-144 682,-144 682,-144 823.17,-76.65 898.26,-40.82"/>
<polygon fill="black" stroke="black" points="899.51,-44.1 907.03,-36.64 896.49,-37.79 899.51,-44.1"/>
</g>
<!-- 21&#45;&gt;8 -->
<g id="edge70" class="edge">
<title>21&#45;&gt;8</title>
<path fill="none" stroke="black" d="M542.86,-575.59C562.53,-550.86 598.7,-505.41 621.49,-476.77"/>
<polygon fill="black" stroke="black" points="623.95,-479.3 627.44,-469.3 618.48,-474.94 623.95,-479.3"/>
</g>
<!-- 21&#45;&gt;9 -->
<g id="edge71" class="edge">
<title>21&#45;&gt;9</title>
<path fill="none" stroke="black" d="M556.59,-575.59C596.85,-550.18 671.78,-502.89 716.85,-474.44"/>
<polygon fill="black" stroke="black" points="718.67,-477.44 725.26,-469.14 714.93,-471.52 718.67,-477.44"/>
</g>
<!-- 21&#45;&gt;10 -->
<g id="edge73" class="edge">
<title>21&#45;&gt;10</title>
<path fill="none" stroke="black" d="M518.29,-575.62C497.14,-541.27 452,-468 452,-468 452,-468 452,-432 452,-432 452,-432 467.27,-372.34 476.72,-335.45"/>
<polygon fill="black" stroke="black" points="480.09,-336.4 479.18,-325.85 473.3,-334.67 480.09,-336.4"/>
</g>
<!-- 22 -->
<g id="node23" class="node">
<title>22</title>
<polygon fill="none" stroke="black" points="596.62,-468 461.38,-468 461.38,-432 596.62,-432 596.62,-468"/>
<text text-anchor="middle" x="529" y="-445.32" font-family="Times,serif" font-size="14.00">left&#45;right&#45;tlcache</text>
</g>
<!-- 21&#45;&gt;22 -->
<g id="edge72" class="edge">
<title>21&#45;&gt;22</title>
<path fill="none" stroke="black" d="M529,-575.59C529,-551.61 529,-508.14 529,-479.42"/>
<polygon fill="black" stroke="black" points="532.5,-479.62 529,-469.62 525.5,-479.62 532.5,-479.62"/>
</g>
<!-- 23&#45;&gt;4 -->
<g id="edge77" class="edge">
<title>23&#45;&gt;4</title>
<path fill="none" stroke="black" d="M1458.23,-575.77C1422.63,-534.24 1335,-432 1335,-432 1335,-432 1225.97,-365.52 1166.93,-329.52"/>
<polygon fill="black" stroke="black" points="1168.87,-326.6 1158.51,-324.39 1165.23,-332.58 1168.87,-326.6"/>
</g>
<!-- 23&#45;&gt;5 -->
<g id="edge76" class="edge">
<title>23&#45;&gt;5</title>
<path fill="none" stroke="black" d="M1474.95,-575.62C1478.79,-541.27 1487,-468 1487,-468 1487,-468 1504.16,-146.9 1509.46,-47.78"/>
<polygon fill="black" stroke="black" points="1512.95,-48.01 1509.99,-37.84 1505.96,-47.64 1512.95,-48.01"/>
</g>
<!-- 23&#45;&gt;7 -->
<g id="edge79" class="edge">
<title>23&#45;&gt;7</title>
<path fill="none" stroke="black" d="M1470.8,-575.67C1460.33,-493.16 1416,-144 1416,-144 1416,-144 1110.07,-62.98 990.81,-31.4"/>
<polygon fill="black" stroke="black" points="991.89,-28.06 981.33,-28.89 990.1,-34.83 991.89,-28.06"/>
</g>
<!-- 23&#45;&gt;11 -->
<g id="edge78" class="edge">
<title>23&#45;&gt;11</title>
<path fill="none" stroke="black" d="M1445.63,-581.26C1389.21,-557.05 1259.36,-501.35 1189.14,-471.22"/>
<polygon fill="black" stroke="black" points="1190.77,-468.12 1180.2,-467.39 1188.01,-474.55 1190.77,-468.12"/>
</g>
<!-- 23&#45;&gt;24 -->
<g id="edge80" class="edge">
<title>23&#45;&gt;24</title>
<path fill="none" stroke="black" d="M1485.51,-575.59C1503.19,-550.97 1535.64,-505.8 1556.22,-477.14"/>
<polygon fill="black" stroke="black" points="1558.83,-479.5 1561.83,-469.34 1553.15,-475.42 1558.83,-479.5"/>
</g>
<!-- 24&#45;&gt;4 -->
<g id="edge81" class="edge">
<title>24&#45;&gt;4</title>
<path fill="none" stroke="black" d="M1538.96,-437.5C1456.17,-411.08 1253.03,-346.26 1168.2,-319.19"/>
<polygon fill="black" stroke="black" points="1169.3,-315.87 1158.71,-316.16 1167.18,-322.54 1169.3,-315.87"/>
</g>
<!-- 25 -->
<g id="node26" class="node">
<title>25</title>
<polygon fill="none" stroke="black" points="219,-468 165,-468 165,-432 219,-432 219,-468"/>
<text text-anchor="middle" x="192" y="-445.32" font-family="Times,serif" font-size="14.00">init</text>
</g>
<!-- 25&#45;&gt;1 -->
<g id="edge82" class="edge">
<title>25&#45;&gt;1</title>
<path fill="none" stroke="black" d="M203.16,-431.59C218.87,-407.08 247.63,-362.19 266.01,-333.52"/>
<polygon fill="black" stroke="black" points="268.77,-335.69 271.22,-325.39 262.88,-331.92 268.77,-335.69"/>
</g>
<!-- 25&#45;&gt;2 -->
<g id="edge83" class="edge">
<title>25&#45;&gt;2</title>
<path fill="none" stroke="black" d="M192.11,-431.73C192.54,-367.21 194,-144 194,-144 194,-144 225.08,-83.3 243.92,-46.5"/>
<polygon fill="black" stroke="black" points="246.97,-48.22 248.41,-37.73 240.74,-45.03 246.97,-48.22"/>
</g>
<!-- 25&#45;&gt;3 -->
<g id="edge84" class="edge">
<title>25&#45;&gt;3</title>
<path fill="none" stroke="black" d="M194.32,-431.54C200.67,-383.76 218.37,-250.51 226.2,-191.61"/>
<polygon fill="black" stroke="black" points="229.66,-192.11 227.51,-181.73 222.72,-191.18 229.66,-192.11"/>
</g>
</g>
</svg>
