<?xml version="1.0" encoding="UTF-8" standalone="no"?>
<!DOCTYPE svg PUBLIC "-//W3C//DTD SVG 1.1//EN"
 "http://www.w3.org/Graphics/SVG/1.1/DTD/svg11.dtd">
<!-- Generated by graphviz version 12.2.1 (0)
 -->
<!-- Pages: 1 -->
<svg width="1607pt" height="1052pt"
 viewBox="0.00 0.00 1607.00 1052.00" xmlns="http://www.w3.org/2000/svg" xmlns:xlink="http://www.w3.org/1999/xlink">
<g id="graph0" class="graph" transform="scale(1 1) rotate(0) translate(4 1048)">
<polygon fill="white" stroke="none" points="-4,4 -4,-1048 1603,-1048 1603,4 -4,4"/>
<!-- 0 -->
<g id="node1" class="node">
<title>0</title>
<polygon fill="none" stroke="black" points="861,-468 807,-468 807,-432 861,-432 861,-468"/>
<text text-anchor="middle" x="834" y="-445.32" font-family="Times,serif" font-size="14.00">cli</text>
</g>
<!-- 1 -->
<g id="node2" class="node">
<title>1</title>
<polygon fill="none" stroke="black" points="412.88,-36 309.12,-36 309.12,0 412.88,0 412.88,-36"/>
<text text-anchor="middle" x="361" y="-13.32" font-family="Times,serif" font-size="14.00">concurrency</text>
</g>
<!-- 2 -->
<g id="node3" class="node">
<title>2</title>
<polygon fill="none" stroke="black" points="675.38,-468 616.62,-468 616.62,-432 675.38,-432 675.38,-468"/>
<text text-anchor="middle" x="646" y="-445.32" font-family="Times,serif" font-size="14.00">config</text>
</g>
<!-- 3 -->
<g id="node4" class="node">
<title>3</title>
<polygon fill="none" stroke="black" points="663,-324 609,-324 609,-288 663,-288 663,-324"/>
<text text-anchor="middle" x="636" y="-301.32" font-family="Times,serif" font-size="14.00">lpm</text>
</g>
<!-- 2&#45;&gt;3 -->
<g id="edge1" class="edge">
<title>2&#45;&gt;3</title>
<path fill="none" stroke="black" d="M644.77,-431.59C643.09,-407.61 640.02,-364.14 638,-335.42"/>
<polygon fill="black" stroke="black" points="641.51,-335.35 637.31,-325.62 634.52,-335.84 641.51,-335.35"/>
</g>
<!-- 4 -->
<g id="node5" class="node">
<title>4</title>
<polygon fill="none" stroke="black" points="869.38,-36 798.62,-36 798.62,0 869.38,0 869.38,-36"/>
<text text-anchor="middle" x="834" y="-13.32" font-family="Times,serif" font-size="14.00">tracectl</text>
</g>
<!-- 2&#45;&gt;4 -->
<g id="edge3" class="edge">
<title>2&#45;&gt;4</title>
<path fill="none" stroke="black" d="M650.59,-431.73C667.72,-367.21 727,-144 727,-144 727,-144 780.3,-81.73 811.67,-45.09"/>
<polygon fill="black" stroke="black" points="814.29,-47.4 818.14,-37.53 808.98,-42.85 814.29,-47.4"/>
</g>
<!-- 5 -->
<g id="node6" class="node">
<title>5</title>
<polygon fill="none" stroke="black" points="1009,-324 955,-324 955,-288 1009,-288 1009,-324"/>
<text text-anchor="middle" x="982" y="-301.32" font-family="Times,serif" font-size="14.00">net</text>
</g>
<!-- 2&#45;&gt;5 -->
<g id="edge2" class="edge">
<title>2&#45;&gt;5</title>
<path fill="none" stroke="black" d="M675.82,-436.4C736.98,-410.55 876.53,-351.57 944.04,-323.04"/>
<polygon fill="black" stroke="black" points="945.37,-326.28 953.22,-319.16 942.65,-319.83 945.37,-326.28"/>
</g>
<!-- 3&#45;&gt;4 -->
<g id="edge4" class="edge">
<title>3&#45;&gt;4</title>
<path fill="none" stroke="black" d="M641.67,-287.77C655.34,-246.24 689,-144 689,-144 689,-144 763.08,-80.14 805.34,-43.71"/>
<polygon fill="black" stroke="black" points="807.4,-46.55 812.69,-37.37 802.83,-41.25 807.4,-46.55"/>
</g>
<!-- 5&#45;&gt;1 -->
<g id="edge5" class="edge">
<title>5&#45;&gt;1</title>
<path fill="none" stroke="black" d="M954.52,-292.34C857.81,-247.8 532.44,-97.95 409.02,-41.11"/>
<polygon fill="black" stroke="black" points="410.67,-38.02 400.13,-37.02 407.75,-44.38 410.67,-38.02"/>
</g>
<!-- 5&#45;&gt;4 -->
<g id="edge8" class="edge">
<title>5&#45;&gt;4</title>
<path fill="none" stroke="black" d="M977.61,-287.77C967.04,-246.24 941,-144 941,-144 941,-144 887.7,-81.73 856.33,-45.09"/>
<polygon fill="black" stroke="black" points="859.02,-42.85 849.86,-37.53 853.71,-47.4 859.02,-42.85"/>
</g>
<!-- 6 -->
<g id="node7" class="node">
<title>6</title>
<polygon fill="none" stroke="black" points="485.38,-180 408.62,-180 408.62,-144 485.38,-144 485.38,-180"/>
<text text-anchor="middle" x="447" y="-157.32" font-family="Times,serif" font-size="14.00">flow&#45;info</text>
</g>
<!-- 5&#45;&gt;6 -->
<g id="edge6" class="edge">
<title>5&#45;&gt;6</title>
<path fill="none" stroke="black" d="M954.73,-297.76C869.4,-275.11 606.61,-205.36 496.42,-176.12"/>
<polygon fill="black" stroke="black" points="497.65,-172.82 487.08,-173.64 495.85,-179.59 497.65,-172.82"/>
</g>
<!-- 7 -->
<g id="node8" class="node">
<title>7</title>
<polygon fill="none" stroke="black" points="1372,-180 1318,-180 1318,-144 1372,-144 1372,-180"/>
<text text-anchor="middle" x="1345" y="-157.32" font-family="Times,serif" font-size="14.00">id</text>
</g>
<!-- 5&#45;&gt;7 -->
<g id="edge7" class="edge">
<title>5&#45;&gt;7</title>
<path fill="none" stroke="black" d="M1009.28,-294.33C1073.43,-269.23 1233.92,-206.45 1307.31,-177.75"/>
<polygon fill="black" stroke="black" points="1308.45,-181.06 1316.49,-174.15 1305.9,-174.54 1308.45,-181.06"/>
</g>
<!-- 6&#45;&gt;1 -->
<g id="edge9" class="edge">
<title>6&#45;&gt;1</title>
<path fill="none" stroke="black" d="M436.45,-143.59C421.67,-119.18 394.66,-74.58 377.29,-45.89"/>
<polygon fill="black" stroke="black" points="380.32,-44.15 372.15,-37.41 374.33,-47.77 380.32,-44.15"/>
</g>
<!-- 6&#45;&gt;4 -->
<g id="edge10" class="edge">
<title>6&#45;&gt;4</title>
<path fill="none" stroke="black" d="M485.52,-146.87C557.19,-120.57 710.72,-64.23 787.82,-35.94"/>
<polygon fill="black" stroke="black" points="788.57,-39.4 796.75,-32.67 786.16,-32.83 788.57,-39.4"/>
</g>
<!-- 8 -->
<g id="node9" class="node">
<title>8</title>
<polygon fill="none" stroke="black" points="1142.5,-468 1069.5,-468 1069.5,-432 1142.5,-432 1142.5,-468"/>
<text text-anchor="middle" x="1106" y="-445.32" font-family="Times,serif" font-size="14.00">pipeline</text>
</g>
<!-- 8&#45;&gt;4 -->
<g id="edge13" class="edge">
<title>8&#45;&gt;4</title>
<path fill="none" stroke="black" d="M1097.68,-431.73C1066.58,-367.21 959,-144 959,-144 959,-144 895.67,-80.67 859.16,-44.16"/>
<polygon fill="black" stroke="black" points="862,-42.05 852.45,-37.45 857.05,-47 862,-42.05"/>
</g>
<!-- 8&#45;&gt;5 -->
<g id="edge12" class="edge">
<title>8&#45;&gt;5</title>
<path fill="none" stroke="black" d="M1090.8,-431.59C1069.2,-406.86 1029.51,-361.41 1004.5,-332.77"/>
<polygon fill="black" stroke="black" points="1007.15,-330.48 997.94,-325.25 1001.88,-335.09 1007.15,-330.48"/>
</g>
<!-- 8&#45;&gt;7 -->
<g id="edge11" class="edge">
<title>8&#45;&gt;7</title>
<path fill="none" stroke="black" d="M1120.59,-431.54C1161.19,-382.96 1275.62,-246.02 1323.51,-188.72"/>
<polygon fill="black" stroke="black" points="1325.9,-191.31 1329.63,-181.39 1320.53,-186.82 1325.9,-191.31"/>
</g>
<!-- 9 -->
<g id="node10" class="node">
<title>9</title>
<polygon fill="none" stroke="black" points="1122.25,-1044 1035.75,-1044 1035.75,-1008 1122.25,-1008 1122.25,-1044"/>
<text text-anchor="middle" x="1079" y="-1021.33" font-family="Times,serif" font-size="14.00">dataplane</text>
</g>
<!-- 9&#45;&gt;1 -->
<g id="edge14" class="edge">
<title>9&#45;&gt;1</title>
<path fill="none" stroke="black" d="M1035.51,-1019.18C851.34,-994.53 145,-900 145,-900 145,-900 0,-739 0,-739 0,-739 0,-739 0,-305 0,-305 242.58,-112.82 330.04,-43.53"/>
<polygon fill="black" stroke="black" points="332.11,-46.35 337.77,-37.4 327.76,-40.87 332.11,-46.35"/>
</g>
<!-- 9&#45;&gt;4 -->
<g id="edge24" class="edge">
<title>9&#45;&gt;4</title>
<path fill="none" stroke="black" d="M1114.46,-1007.62C1184.52,-973.27 1334,-900 1334,-900 1334,-900 1599,-739 1599,-739 1599,-739 1599,-739 1599,-305 1599,-305 1410,-144 1410,-144 1410,-144 1017.55,-58.83 880.53,-29.1"/>
<polygon fill="black" stroke="black" points="881.59,-25.75 871.08,-27.05 880.11,-32.59 881.59,-25.75"/>
</g>
<!-- 9&#45;&gt;5 -->
<g id="edge19" class="edge">
<title>9&#45;&gt;5</title>
<path fill="none" stroke="black" d="M1102.22,-1007.62C1148.11,-973.27 1246,-900 1246,-900 1246,-900 1298,-756 1298,-756 1298,-756 1298,-720 1298,-720 1298,-720 1288,-576 1288,-576 1288,-576 1152,-432 1152,-432 1152,-432 1064.05,-367.33 1014.67,-331.02"/>
<polygon fill="black" stroke="black" points="1016.99,-328.38 1006.86,-325.28 1012.84,-334.02 1016.99,-328.38"/>
</g>
<!-- 9&#45;&gt;7 -->
<g id="edge16" class="edge">
<title>9&#45;&gt;7</title>
<path fill="none" stroke="black" d="M1108.43,-1007.54C1213.08,-945.45 1561,-739 1561,-739 1561,-739 1561,-739 1561,-449 1561,-449 1480,-288 1480,-288 1480,-288 1411.6,-224.67 1372.18,-188.16"/>
<polygon fill="black" stroke="black" points="1374.6,-185.63 1364.88,-181.41 1369.84,-190.77 1374.6,-185.63"/>
</g>
<!-- 9&#45;&gt;8 -->
<g id="edge20" class="edge">
<title>9&#45;&gt;8</title>
<path fill="none" stroke="black" d="M1099.3,-1007.62C1139.42,-973.27 1225,-900 1225,-900 1225,-900 1284,-756 1284,-756 1284,-756 1284,-720 1284,-720 1284,-720 1273,-576 1273,-576 1273,-576 1186.96,-511.6 1138.4,-475.25"/>
<polygon fill="black" stroke="black" points="1140.54,-472.48 1130.43,-469.29 1136.34,-478.08 1140.54,-472.48"/>
</g>
<!-- 10 -->
<g id="node11" class="node">
<title>10</title>
<polygon fill="none" stroke="black" points="208,-900 154,-900 154,-864 208,-864 208,-900"/>
<text text-anchor="middle" x="181" y="-877.33" font-family="Times,serif" font-size="14.00">dpdk</text>
</g>
<!-- 9&#45;&gt;10 -->
<g id="edge15" class="edge">
<title>9&#45;&gt;10</title>
<path fill="none" stroke="black" d="M1035.38,-1018.1C881.32,-993.74 364.19,-911.97 219.12,-889.03"/>
<polygon fill="black" stroke="black" points="220.09,-885.64 209.67,-887.53 219,-892.55 220.09,-885.64"/>
</g>
<!-- 13 -->
<g id="node14" class="node">
<title>13</title>
<polygon fill="none" stroke="black" points="994,-900 936,-900 936,-864 994,-864 994,-900"/>
<text text-anchor="middle" x="965" y="-877.33" font-family="Times,serif" font-size="14.00">mgmt</text>
</g>
<!-- 9&#45;&gt;13 -->
<g id="edge17" class="edge">
<title>9&#45;&gt;13</title>
<path fill="none" stroke="black" d="M1065.02,-1007.59C1045.17,-982.86 1008.68,-937.41 985.69,-908.77"/>
<polygon fill="black" stroke="black" points="988.67,-906.9 979.68,-901.29 983.22,-911.28 988.67,-906.9"/>
</g>
<!-- 16 -->
<g id="node17" class="node">
<title>16</title>
<polygon fill="none" stroke="black" points="481,-756 427,-756 427,-720 481,-720 481,-756"/>
<text text-anchor="middle" x="454" y="-733.33" font-family="Times,serif" font-size="14.00">nat</text>
</g>
<!-- 9&#45;&gt;16 -->
<g id="edge18" class="edge">
<title>9&#45;&gt;16</title>
<path fill="none" stroke="black" d="M1035.26,-1014.66C908.52,-984.72 550,-900 550,-900 550,-900 497.31,-811.64 470,-765.83"/>
<polygon fill="black" stroke="black" points="473.18,-764.33 465.05,-757.53 467.16,-767.91 473.18,-764.33"/>
</g>
<!-- 17 -->
<g id="node18" class="node">
<title>17</title>
<polygon fill="none" stroke="black" points="596.88,-612 517.12,-612 517.12,-576 596.88,-576 596.88,-612"/>
<text text-anchor="middle" x="557" y="-589.33" font-family="Times,serif" font-size="14.00">pkt&#45;meta</text>
</g>
<!-- 9&#45;&gt;17 -->
<g id="edge21" class="edge">
<title>9&#45;&gt;17</title>
<path fill="none" stroke="black" d="M1052.28,-1007.56C960.99,-947.95 667,-756 667,-756 667,-756 606.37,-667.26 575.14,-621.55"/>
<polygon fill="black" stroke="black" points="578.16,-619.76 569.63,-613.48 572.38,-623.71 578.16,-619.76"/>
</g>
<!-- 18 -->
<g id="node19" class="node">
<title>18</title>
<polygon fill="none" stroke="black" points="813.25,-612 744.75,-612 744.75,-576 813.25,-576 813.25,-612"/>
<text text-anchor="middle" x="779" y="-589.33" font-family="Times,serif" font-size="14.00">routing</text>
</g>
<!-- 9&#45;&gt;18 -->
<g id="edge22" class="edge">
<title>9&#45;&gt;18</title>
<path fill="none" stroke="black" d="M1057.87,-1007.62C1016.1,-973.27 927,-900 927,-900 927,-900 850,-756 850,-756 850,-756 811.52,-668.75 791.22,-622.71"/>
<polygon fill="black" stroke="black" points="794.45,-621.35 787.21,-613.61 788.04,-624.18 794.45,-621.35"/>
</g>
<!-- 19 -->
<g id="node20" class="node">
<title>19</title>
<polygon fill="none" stroke="black" points="1275,-756 1221,-756 1221,-720 1275,-720 1275,-756"/>
<text text-anchor="middle" x="1248" y="-733.33" font-family="Times,serif" font-size="14.00">stats</text>
</g>
<!-- 9&#45;&gt;19 -->
<g id="edge23" class="edge">
<title>9&#45;&gt;19</title>
<path fill="none" stroke="black" d="M1096.8,-1007.62C1131.97,-973.27 1207,-900 1207,-900 1207,-900 1229.03,-813.48 1240.8,-767.29"/>
<polygon fill="black" stroke="black" points="1244.16,-768.25 1243.24,-757.7 1237.38,-766.52 1244.16,-768.25"/>
</g>
<!-- 20 -->
<g id="node21" class="node">
<title>20</title>
<polygon fill="none" stroke="black" points="1216.75,-612 1145.25,-612 1145.25,-576 1216.75,-576 1216.75,-612"/>
<text text-anchor="middle" x="1181" y="-589.33" font-family="Times,serif" font-size="14.00">vpcmap</text>
</g>
<!-- 9&#45;&gt;20 -->
<g id="edge25" class="edge">
<title>9&#45;&gt;20</title>
<path fill="none" stroke="black" d="M1083.55,-1007.76C1099.22,-948.39 1150,-756 1150,-756 1150,-756 1166.66,-669.48 1175.55,-623.29"/>
<polygon fill="black" stroke="black" points="1178.94,-624.2 1177.4,-613.72 1172.07,-622.87 1178.94,-624.2"/>
</g>
<!-- 10&#45;&gt;5 -->
<g id="edge28" class="edge">
<title>10&#45;&gt;5</title>
<path fill="none" stroke="black" d="M195.97,-863.67C267.28,-781.16 569,-432 569,-432 569,-432 841.52,-349.52 943.82,-318.56"/>
<polygon fill="black" stroke="black" points="944.58,-321.98 953.13,-315.74 942.55,-315.28 944.58,-321.98"/>
</g>
<!-- 11 -->
<g id="node12" class="node">
<title>11</title>
<polygon fill="none" stroke="black" points="107.5,-756 28.5,-756 28.5,-720 107.5,-720 107.5,-756"/>
<text text-anchor="middle" x="68" y="-733.33" font-family="Times,serif" font-size="14.00">dpdk&#45;sys</text>
</g>
<!-- 10&#45;&gt;11 -->
<g id="edge26" class="edge">
<title>10&#45;&gt;11</title>
<path fill="none" stroke="black" d="M167.14,-863.59C147.47,-838.86 111.3,-793.41 88.51,-764.77"/>
<polygon fill="black" stroke="black" points="91.52,-762.94 82.56,-757.3 86.05,-767.3 91.52,-762.94"/>
</g>
<!-- 12 -->
<g id="node13" class="node">
<title>12</title>
<polygon fill="none" stroke="black" points="180.5,-756 125.5,-756 125.5,-720 180.5,-720 180.5,-756"/>
<text text-anchor="middle" x="153" y="-733.33" font-family="Times,serif" font-size="14.00">errno</text>
</g>
<!-- 10&#45;&gt;12 -->
<g id="edge27" class="edge">
<title>10&#45;&gt;12</title>
<path fill="none" stroke="black" d="M177.57,-863.59C172.82,-839.5 164.19,-795.75 158.53,-767.03"/>
<polygon fill="black" stroke="black" points="162.04,-766.73 156.67,-757.6 155.17,-768.08 162.04,-766.73"/>
</g>
<!-- 13&#45;&gt;2 -->
<g id="edge29" class="edge">
<title>13&#45;&gt;2</title>
<path fill="none" stroke="black" d="M949.01,-863.62C917.41,-829.27 850,-756 850,-756 850,-756 736,-612 736,-612 736,-612 686.81,-524.01 661.16,-478.12"/>
<polygon fill="black" stroke="black" points="664.3,-476.57 656.37,-469.55 658.19,-479.99 664.3,-476.57"/>
</g>
<!-- 13&#45;&gt;3 -->
<g id="edge32" class="edge">
<title>13&#45;&gt;3</title>
<path fill="none" stroke="black" d="M957.77,-863.62C943.48,-829.27 913,-756 913,-756 913,-756 870,-432 870,-432 870,-432 739.38,-362.22 673.32,-326.94"/>
<polygon fill="black" stroke="black" points="675.11,-323.92 664.64,-322.3 671.81,-330.1 675.11,-323.92"/>
</g>
<!-- 13&#45;&gt;4 -->
<g id="edge39" class="edge">
<title>13&#45;&gt;4</title>
<path fill="none" stroke="black" d="M962.68,-863.54C954.43,-801.45 927,-595 927,-595 927,-595 927,-595 927,-305 927,-305 866.51,-118.99 843.1,-46.99"/>
<polygon fill="black" stroke="black" points="846.57,-46.33 840.15,-37.9 839.91,-48.49 846.57,-46.33"/>
</g>
<!-- 13&#45;&gt;5 -->
<g id="edge34" class="edge">
<title>13&#45;&gt;5</title>
<path fill="none" stroke="black" d="M965.52,-863.51C967.94,-781.89 978.11,-438.2 981.15,-335.86"/>
<polygon fill="black" stroke="black" points="984.64,-335.97 981.44,-325.87 977.65,-335.76 984.64,-335.97"/>
</g>
<!-- 13&#45;&gt;7 -->
<g id="edge30" class="edge">
<title>13&#45;&gt;7</title>
<path fill="none" stroke="black" d="M976.4,-863.62C998.93,-829.27 1047,-756 1047,-756 1047,-756 1136,-576 1136,-576 1136,-576 1370,-468 1370,-468 1370,-468 1370,-432 1370,-432 1370,-432 1354.09,-260.78 1347.65,-191.55"/>
<polygon fill="black" stroke="black" points="1351.15,-191.38 1346.74,-181.74 1344.18,-192.02 1351.15,-191.38"/>
</g>
<!-- 14 -->
<g id="node15" class="node">
<title>14</title>
<polygon fill="none" stroke="black" points="1346.62,-468 1199.38,-468 1199.38,-432 1346.62,-432 1346.62,-468"/>
<text text-anchor="middle" x="1273" y="-445.32" font-family="Times,serif" font-size="14.00">interface&#45;manager</text>
</g>
<!-- 13&#45;&gt;14 -->
<g id="edge31" class="edge">
<title>13&#45;&gt;14</title>
<path fill="none" stroke="black" d="M970.66,-863.73C991.82,-799.21 1065,-576 1065,-576 1065,-576 1174.41,-510.25 1234.52,-474.12"/>
<polygon fill="black" stroke="black" points="1236.01,-477.31 1242.78,-469.16 1232.41,-471.31 1236.01,-477.31"/>
</g>
<!-- 15 -->
<g id="node16" class="node">
<title>15</title>
<polygon fill="none" stroke="black" points="1317.25,-324 1260.75,-324 1260.75,-288 1317.25,-288 1317.25,-324"/>
<text text-anchor="middle" x="1289" y="-301.32" font-family="Times,serif" font-size="14.00">rekon</text>
</g>
<!-- 13&#45;&gt;15 -->
<g id="edge36" class="edge">
<title>13&#45;&gt;15</title>
<path fill="none" stroke="black" d="M973.48,-863.62C990.24,-829.27 1026,-756 1026,-756 1026,-756 1103,-576 1103,-576 1103,-576 1356,-468 1356,-468 1356,-468 1356,-432 1356,-432 1356,-432 1323.47,-371.3 1303.74,-334.5"/>
<polygon fill="black" stroke="black" points="1306.84,-332.87 1299.03,-325.71 1300.67,-336.18 1306.84,-332.87"/>
</g>
<!-- 13&#45;&gt;16 -->
<g id="edge33" class="edge">
<title>13&#45;&gt;16</title>
<path fill="none" stroke="black" d="M935.69,-872.86C848.38,-848.59 590.03,-776.8 492.16,-749.6"/>
<polygon fill="black" stroke="black" points="493.34,-746.3 482.77,-747 491.47,-753.04 493.34,-746.3"/>
</g>
<!-- 13&#45;&gt;17 -->
<g id="edge35" class="edge">
<title>13&#45;&gt;17</title>
<path fill="none" stroke="black" d="M935.71,-867.02C867.34,-834.41 703,-756 703,-756 703,-756 621.52,-666.14 580.3,-620.69"/>
<polygon fill="black" stroke="black" points="582.95,-618.41 573.64,-613.35 577.77,-623.11 582.95,-618.41"/>
</g>
<!-- 13&#45;&gt;18 -->
<g id="edge37" class="edge">
<title>13&#45;&gt;18</title>
<path fill="none" stroke="black" d="M952.49,-863.62C927.76,-829.27 875,-756 875,-756 875,-756 822.31,-667.64 795,-621.83"/>
<polygon fill="black" stroke="black" points="798.18,-620.33 790.05,-613.53 792.16,-623.91 798.18,-620.33"/>
</g>
<!-- 13&#45;&gt;19 -->
<g id="edge38" class="edge">
<title>13&#45;&gt;19</title>
<path fill="none" stroke="black" d="M994.49,-866.21C1046.33,-840.19 1153.7,-786.31 1210.65,-757.74"/>
<polygon fill="black" stroke="black" points="1211.95,-761 1219.32,-753.39 1208.81,-754.75 1211.95,-761"/>
</g>
<!-- 13&#45;&gt;20 -->
<g id="edge40" class="edge">
<title>13&#45;&gt;20</title>
<path fill="none" stroke="black" d="M988.08,-863.62C1033.69,-829.27 1131,-756 1131,-756 1131,-756 1157.98,-669.11 1172.3,-623"/>
<polygon fill="black" stroke="black" points="1175.58,-624.26 1175.2,-613.68 1168.89,-622.19 1175.58,-624.26"/>
</g>
<!-- 14&#45;&gt;4 -->
<g id="edge44" class="edge">
<title>14&#45;&gt;4</title>
<path fill="none" stroke="black" d="M1256.46,-431.73C1194.69,-367.21 981,-144 981,-144 981,-144 905.9,-80.14 863.05,-43.71"/>
<polygon fill="black" stroke="black" points="865.48,-41.17 855.59,-37.36 860.94,-46.51 865.48,-41.17"/>
</g>
<!-- 14&#45;&gt;5 -->
<g id="edge42" class="edge">
<title>14&#45;&gt;5</title>
<path fill="none" stroke="black" d="M1237.32,-431.59C1182,-404.59 1076.04,-352.89 1019.58,-325.34"/>
<polygon fill="black" stroke="black" points="1021.19,-322.23 1010.67,-320.99 1018.12,-328.52 1021.19,-322.23"/>
</g>
<!-- 14&#45;&gt;7 -->
<g id="edge41" class="edge">
<title>14&#45;&gt;7</title>
<path fill="none" stroke="black" d="M1270.08,-431.62C1264.31,-397.27 1252,-324 1252,-324 1252,-324 1252,-288 1252,-288 1252,-288 1297.94,-226.26 1325.24,-189.56"/>
<polygon fill="black" stroke="black" points="1328,-191.71 1331.17,-181.6 1322.39,-187.53 1328,-191.71"/>
</g>
<!-- 14&#45;&gt;15 -->
<g id="edge43" class="edge">
<title>14&#45;&gt;15</title>
<path fill="none" stroke="black" d="M1274.96,-431.59C1277.66,-407.61 1282.56,-364.14 1285.8,-335.42"/>
<polygon fill="black" stroke="black" points="1289.26,-335.94 1286.9,-325.61 1282.3,-335.16 1289.26,-335.94"/>
</g>
<!-- 16&#45;&gt;1 -->
<g id="edge45" class="edge">
<title>16&#45;&gt;1</title>
<path fill="none" stroke="black" d="M428.55,-719.62C378.27,-685.27 271,-612 271,-612 271,-612 247,-451 247,-451 247,-451 247,-451 247,-305 247,-305 271,-144 271,-144 271,-144 315.46,-82.26 341.88,-45.56"/>
<polygon fill="black" stroke="black" points="344.6,-47.77 347.6,-37.61 338.92,-43.68 344.6,-47.77"/>
</g>
<!-- 16&#45;&gt;2 -->
<g id="edge46" class="edge">
<title>16&#45;&gt;2</title>
<path fill="none" stroke="black" d="M475.13,-719.62C516.9,-685.27 606,-612 606,-612 606,-612 627.5,-525.48 638.97,-479.29"/>
<polygon fill="black" stroke="black" points="642.34,-480.25 641.35,-469.7 635.55,-478.56 642.34,-480.25"/>
</g>
<!-- 16&#45;&gt;3 -->
<g id="edge48" class="edge">
<title>16&#45;&gt;3</title>
<path fill="none" stroke="black" d="M449.69,-719.62C441.17,-685.27 423,-612 423,-612 423,-612 423,-432 423,-432 423,-432 537.91,-364.56 598.93,-328.75"/>
<polygon fill="black" stroke="black" points="600.43,-331.93 607.28,-323.85 596.89,-325.89 600.43,-331.93"/>
</g>
<!-- 16&#45;&gt;4 -->
<g id="edge52" class="edge">
<title>16&#45;&gt;4</title>
<path fill="none" stroke="black" d="M443.68,-719.54C406.99,-657.45 285,-451 285,-451 285,-451 285,-451 285,-305 285,-305 400,-144 400,-144 400,-144 675.58,-64.63 787.54,-32.38"/>
<polygon fill="black" stroke="black" points="788.39,-35.78 797.03,-29.65 786.45,-29.05 788.39,-35.78"/>
</g>
<!-- 16&#45;&gt;5 -->
<g id="edge49" class="edge">
<title>16&#45;&gt;5</title>
<path fill="none" stroke="black" d="M459.78,-719.77C473.71,-678.24 508,-576 508,-576 508,-576 593,-432 593,-432 593,-432 845.7,-350.8 943.75,-319.29"/>
<polygon fill="black" stroke="black" points="944.76,-322.64 953.21,-316.25 942.61,-315.98 944.76,-322.64"/>
</g>
<!-- 16&#45;&gt;6 -->
<g id="edge47" class="edge">
<title>16&#45;&gt;6</title>
<path fill="none" stroke="black" d="M449.13,-719.62C439.52,-685.27 419,-612 419,-612 419,-612 419,-432 419,-432 419,-432 436.82,-260.78 444.03,-191.55"/>
<polygon fill="black" stroke="black" points="447.49,-192.05 445.05,-181.74 440.53,-191.33 447.49,-192.05"/>
</g>
<!-- 16&#45;&gt;8 -->
<g id="edge50" class="edge">
<title>16&#45;&gt;8</title>
<path fill="none" stroke="black" d="M481.36,-727.71C566.64,-698.74 822,-612 822,-612 822,-612 987.45,-518.21 1065.78,-473.8"/>
<polygon fill="black" stroke="black" points="1067.05,-477.11 1074.02,-469.13 1063.6,-471.02 1067.05,-477.11"/>
</g>
<!-- 16&#45;&gt;17 -->
<g id="edge51" class="edge">
<title>16&#45;&gt;17</title>
<path fill="none" stroke="black" d="M466.63,-719.59C484.49,-694.97 517.25,-649.8 538.04,-621.14"/>
<polygon fill="black" stroke="black" points="540.66,-623.49 543.7,-613.34 535,-619.38 540.66,-623.49"/>
</g>
<!-- 17&#45;&gt;1 -->
<g id="edge53" class="edge">
<title>17&#45;&gt;1</title>
<path fill="none" stroke="black" d="M547.68,-575.62C529.27,-541.27 490,-468 490,-468 490,-468 400,-180 400,-180 400,-180 379.04,-93.48 367.85,-47.29"/>
<polygon fill="black" stroke="black" points="371.29,-46.6 365.53,-37.7 364.48,-48.24 371.29,-46.6"/>
</g>
<!-- 17&#45;&gt;2 -->
<g id="edge54" class="edge">
<title>17&#45;&gt;2</title>
<path fill="none" stroke="black" d="M567.91,-575.59C583.28,-551.08 611.41,-506.19 629.38,-477.52"/>
<polygon fill="black" stroke="black" points="632.13,-479.73 634.47,-469.39 626.2,-476.01 632.13,-479.73"/>
</g>
<!-- 17&#45;&gt;3 -->
<g id="edge56" class="edge">
<title>17&#45;&gt;3</title>
<path fill="none" stroke="black" d="M558.93,-575.77C563.57,-534.24 575,-432 575,-432 575,-432 604.62,-371.3 622.58,-334.5"/>
<polygon fill="black" stroke="black" points="625.61,-336.26 626.85,-325.74 619.32,-333.19 625.61,-336.26"/>
</g>
<!-- 17&#45;&gt;4 -->
<g id="edge59" class="edge">
<title>17&#45;&gt;4</title>
<path fill="none" stroke="black" d="M558.07,-575.77C560.65,-534.24 567,-432 567,-432 567,-432 600,-288 600,-288 600,-288 674,-144 674,-144 674,-144 756.43,-79.6 802.96,-43.25"/>
<polygon fill="black" stroke="black" points="804.83,-46.23 810.56,-37.31 800.52,-40.71 804.83,-46.23"/>
</g>
<!-- 17&#45;&gt;5 -->
<g id="edge57" class="edge">
<title>17&#45;&gt;5</title>
<path fill="none" stroke="black" d="M562.46,-575.77C575.61,-534.24 608,-432 608,-432 608,-432 848.77,-351.53 943.94,-319.72"/>
<polygon fill="black" stroke="black" points="944.99,-323.06 953.37,-316.57 942.77,-316.42 944.99,-323.06"/>
</g>
<!-- 17&#45;&gt;6 -->
<g id="edge55" class="edge">
<title>17&#45;&gt;6</title>
<path fill="none" stroke="black" d="M548.94,-575.62C533,-541.27 499,-468 499,-468 499,-468 464.71,-266.89 451.82,-191.28"/>
<polygon fill="black" stroke="black" points="455.33,-191.03 450.2,-181.76 448.43,-192.21 455.33,-191.03"/>
</g>
<!-- 17&#45;&gt;8 -->
<g id="edge58" class="edge">
<title>17&#45;&gt;8</title>
<path fill="none" stroke="black" d="M597.37,-582.56C696.52,-556.91 951.67,-490.92 1058.18,-463.37"/>
<polygon fill="black" stroke="black" points="1058.94,-466.79 1067.75,-460.89 1057.19,-460.01 1058.94,-466.79"/>
</g>
<!-- 18&#45;&gt;0 -->
<g id="edge60" class="edge">
<title>18&#45;&gt;0</title>
<path fill="none" stroke="black" d="M785.74,-575.59C795.11,-551.4 812.17,-507.36 823.29,-478.65"/>
<polygon fill="black" stroke="black" points="826.48,-480.11 826.83,-469.52 819.95,-477.58 826.48,-480.11"/>
</g>
<!-- 18&#45;&gt;2 -->
<g id="edge61" class="edge">
<title>18&#45;&gt;2</title>
<path fill="none" stroke="black" d="M762.69,-575.59C739.43,-550.76 696.59,-505.01 669.79,-476.4"/>
<polygon fill="black" stroke="black" points="672.45,-474.12 663.06,-469.22 667.34,-478.91 672.45,-474.12"/>
</g>
<!-- 18&#45;&gt;3 -->
<g id="edge62" class="edge">
<title>18&#45;&gt;3</title>
<path fill="none" stroke="black" d="M770.27,-575.54C746.23,-527.46 678.92,-392.83 649.76,-334.51"/>
<polygon fill="black" stroke="black" points="652.9,-332.96 645.29,-325.59 646.63,-336.09 652.9,-332.96"/>
</g>
<!-- 18&#45;&gt;4 -->
<g id="edge64" class="edge">
<title>18&#45;&gt;4</title>
<path fill="none" stroke="black" d="M780.18,-575.77C783.01,-534.24 790,-432 790,-432 790,-432 820.92,-141.74 830.92,-47.89"/>
<polygon fill="black" stroke="black" points="834.4,-48.3 831.98,-37.99 827.44,-47.56 834.4,-48.3"/>
</g>
<!-- 18&#45;&gt;5 -->
<g id="edge63" class="edge">
<title>18&#45;&gt;5</title>
<path fill="none" stroke="black" d="M781.03,-575.77C785.93,-534.24 798,-432 798,-432 798,-432 893.59,-367.06 946.97,-330.8"/>
<polygon fill="black" stroke="black" points="948.86,-333.75 955.16,-325.23 944.93,-327.96 948.86,-333.75"/>
</g>
<!-- 19&#45;&gt;4 -->
<g id="edge67" class="edge">
<title>19&#45;&gt;4</title>
<path fill="none" stroke="black" d="M1264.79,-719.54C1324.5,-657.45 1523,-451 1523,-451 1523,-451 1523,-451 1523,-305 1523,-305 1381,-144 1381,-144 1381,-144 1012.48,-59.79 880.4,-29.6"/>
<polygon fill="black" stroke="black" points="881.47,-26.26 870.94,-27.44 879.91,-33.08 881.47,-26.26"/>
</g>
<!-- 19&#45;&gt;5 -->
<g id="edge65" class="edge">
<title>19&#45;&gt;5</title>
<path fill="none" stroke="black" d="M1245.65,-719.77C1239.97,-678.24 1226,-576 1226,-576 1226,-576 1061,-468 1061,-468 1061,-468 1018,-380.38 995.45,-334.41"/>
<polygon fill="black" stroke="black" points="998.67,-333.02 991.12,-325.59 992.38,-336.11 998.67,-333.02"/>
</g>
<!-- 19&#45;&gt;8 -->
<g id="edge66" class="edge">
<title>19&#45;&gt;8</title>
<path fill="none" stroke="black" d="M1249.53,-719.62C1252.55,-685.27 1259,-612 1259,-612 1259,-612 1259,-576 1259,-576 1259,-576 1180.5,-511.87 1135.96,-475.48"/>
<polygon fill="black" stroke="black" points="1138.4,-472.95 1128.45,-469.34 1133.98,-478.38 1138.4,-472.95"/>
</g>
<!-- 19&#45;&gt;20 -->
<g id="edge68" class="edge">
<title>19&#45;&gt;20</title>
<path fill="none" stroke="black" d="M1239.78,-719.59C1228.32,-695.29 1207.41,-650.97 1193.87,-622.27"/>
<polygon fill="black" stroke="black" points="1197.15,-621.03 1189.72,-613.48 1190.82,-624.02 1197.15,-621.03"/>
</g>
<!-- 20&#45;&gt;5 -->
<g id="edge69" class="edge">
<title>20&#45;&gt;5</title>
<path fill="none" stroke="black" d="M1159.59,-575.62C1117.27,-541.27 1027,-468 1027,-468 1027,-468 1002.82,-381.48 989.91,-335.29"/>
<polygon fill="black" stroke="black" points="993.29,-334.38 987.22,-325.69 986.54,-336.26 993.29,-334.38"/>
</g>
<!-- 21 -->
<g id="node22" class="node">
<title>21</title>
<polygon fill="none" stroke="black" points="1457.12,-324 1372.88,-324 1372.88,-288 1457.12,-288 1457.12,-324"/>
<text text-anchor="middle" x="1415" y="-301.32" font-family="Times,serif" font-size="14.00">hardware</text>
</g>
<!-- 21&#45;&gt;7 -->
<g id="edge70" class="edge">
<title>21&#45;&gt;7</title>
<path fill="none" stroke="black" d="M1406.42,-287.59C1394.44,-263.29 1372.59,-218.97 1358.44,-190.27"/>
<polygon fill="black" stroke="black" points="1361.67,-188.89 1354.1,-181.47 1355.39,-191.99 1361.67,-188.89"/>
</g>
<!-- 22 -->
<g id="node23" class="node">
<title>22</title>
<polygon fill="none" stroke="black" points="1495,-468 1441,-468 1441,-432 1495,-432 1495,-468"/>
<text text-anchor="middle" x="1468" y="-445.32" font-family="Times,serif" font-size="14.00">init</text>
</g>
<!-- 22&#45;&gt;5 -->
<g id="edge72" class="edge">
<title>22&#45;&gt;5</title>
<path fill="none" stroke="black" d="M1440.83,-441.06C1359,-417.15 1114.71,-345.78 1020.06,-318.12"/>
<polygon fill="black" stroke="black" points="1021.31,-314.84 1010.73,-315.39 1019.35,-321.56 1021.31,-314.84"/>
</g>
<!-- 22&#45;&gt;7 -->
<g id="edge71" class="edge">
<title>22&#45;&gt;7</title>
<path fill="none" stroke="black" d="M1467.79,-431.77C1467.27,-390.24 1466,-288 1466,-288 1466,-288 1405.21,-225.2 1369.81,-188.63"/>
<polygon fill="black" stroke="black" points="1372.35,-186.22 1362.88,-181.47 1367.32,-191.09 1372.35,-186.22"/>
</g>
</g>
</svg>
