<?xml version="1.0" encoding="UTF-8" standalone="no"?>
<!DOCTYPE svg PUBLIC "-//W3C//DTD SVG 1.1//EN"
 "http://www.w3.org/Graphics/SVG/1.1/DTD/svg11.dtd">
<!-- Generated by graphviz version 14.1.2 (20260124.0452)
 -->
<!-- Pages: 1 -->
<svg width="2076pt" height="1052pt"
 viewBox="0.00 0.00 2076.00 1052.00" xmlns="http://www.w3.org/2000/svg" xmlns:xlink="http://www.w3.org/1999/xlink">
<g id="graph0" class="graph" transform="scale(1 1) rotate(0) translate(4 1048)">
<polygon fill="white" stroke="none" points="-4,4 -4,-1048 2072,-1048 2072,4 -4,4"/>
<!-- 0 -->
<g id="node1" class="node">
<title>0</title>
<polygon fill="none" stroke="black" points="215,-468 161,-468 161,-432 215,-432 215,-468"/>
<text xml:space="preserve" text-anchor="middle" x="188" y="-444.95" font-family="Times,serif" font-size="14.00">args</text>
</g>
<!-- 1 -->
<g id="node2" class="node">
<title>1</title>
<polygon fill="none" stroke="black" points="223.12,-324 156.88,-324 156.88,-288 223.12,-288 223.12,-324"/>
<text xml:space="preserve" text-anchor="middle" x="190" y="-300.95" font-family="Times,serif" font-size="14.00">hardware</text>
</g>
<!-- 0&#45;&gt;1 -->
<g id="edge1" class="edge">
<title>0&#45;&gt;1</title>
<path fill="none" stroke="black" d="M188.25,-431.59C188.58,-407.61 189.2,-364.14 189.6,-335.42"/>
<polygon fill="black" stroke="black" points="193.1,-335.67 189.74,-325.62 186.1,-335.57 193.1,-335.67"/>
</g>
<!-- 2 -->
<g id="node3" class="node">
<title>2</title>
<polygon fill="none" stroke="black" points="217,-180 163,-180 163,-144 217,-144 217,-180"/>
<text xml:space="preserve" text-anchor="middle" x="190" y="-156.95" font-family="Times,serif" font-size="14.00">id</text>
</g>
<!-- 0&#45;&gt;2 -->
<g id="edge2" class="edge">
<title>0&#45;&gt;2</title>
<path fill="none" stroke="black" d="M182.44,-431.62C171.45,-397.27 148,-324 148,-324 148,-324 148,-288 148,-288 148,-288 168.22,-227.82 180.6,-190.97"/>
<polygon fill="black" stroke="black" points="183.81,-192.41 183.68,-181.82 177.18,-190.18 183.81,-192.41"/>
</g>
<!-- 4 -->
<g id="node5" class="node">
<title>4</title>
<polygon fill="none" stroke="black" points="695,-324 641,-324 641,-288 695,-288 695,-324"/>
<text xml:space="preserve" text-anchor="middle" x="668" y="-300.95" font-family="Times,serif" font-size="14.00">net</text>
</g>
<!-- 0&#45;&gt;4 -->
<g id="edge3" class="edge">
<title>0&#45;&gt;4</title>
<path fill="none" stroke="black" d="M215.18,-440.96C296.09,-417.02 535.58,-346.17 629.54,-318.38"/>
<polygon fill="black" stroke="black" points="630.47,-321.75 639.07,-315.56 628.49,-315.04 630.47,-321.75"/>
</g>
<!-- 1&#45;&gt;2 -->
<g id="edge4" class="edge">
<title>1&#45;&gt;2</title>
<path fill="none" stroke="black" d="M190,-287.59C190,-263.61 190,-220.14 190,-191.42"/>
<polygon fill="black" stroke="black" points="193.5,-191.62 190,-181.62 186.5,-191.62 193.5,-191.62"/>
</g>
<!-- 3 -->
<g id="node4" class="node">
<title>3</title>
<polygon fill="none" stroke="black" points="102,-180 48,-180 48,-144 102,-144 102,-180"/>
<text xml:space="preserve" text-anchor="middle" x="75" y="-156.95" font-family="Times,serif" font-size="14.00">sysfs</text>
</g>
<!-- 1&#45;&gt;3 -->
<g id="edge5" class="edge">
<title>1&#45;&gt;3</title>
<path fill="none" stroke="black" d="M175.9,-287.59C155.87,-262.86 119.06,-217.41 95.87,-188.77"/>
<polygon fill="black" stroke="black" points="98.82,-186.86 89.81,-181.29 93.38,-191.26 98.82,-186.86"/>
</g>
<!-- 4&#45;&gt;2 -->
<g id="edge8" class="edge">
<title>4&#45;&gt;2</title>
<path fill="none" stroke="black" d="M640.58,-296.86C559.65,-272.81 321.6,-202.09 228.21,-174.35"/>
<polygon fill="black" stroke="black" points="229.34,-171.04 218.76,-171.54 227.35,-177.75 229.34,-171.04"/>
</g>
<!-- 5 -->
<g id="node6" class="node">
<title>5</title>
<polygon fill="none" stroke="black" points="1762.38,-36 1679.62,-36 1679.62,0 1762.38,0 1762.38,-36"/>
<text xml:space="preserve" text-anchor="middle" x="1721" y="-12.95" font-family="Times,serif" font-size="14.00">concurrency</text>
</g>
<!-- 4&#45;&gt;5 -->
<g id="edge6" class="edge">
<title>4&#45;&gt;5</title>
<path fill="none" stroke="black" d="M695.36,-297.57C836.06,-259.35 1479.04,-84.72 1668.39,-33.29"/>
<polygon fill="black" stroke="black" points="1669.23,-36.69 1677.96,-30.69 1667.39,-29.93 1669.23,-36.69"/>
</g>
<!-- 6 -->
<g id="node7" class="node">
<title>6</title>
<polygon fill="none" stroke="black" points="1716.5,-180 1649.5,-180 1649.5,-144 1716.5,-144 1716.5,-180"/>
<text xml:space="preserve" text-anchor="middle" x="1683" y="-156.95" font-family="Times,serif" font-size="14.00">flow&#45;info</text>
</g>
<!-- 4&#45;&gt;6 -->
<g id="edge7" class="edge">
<title>4&#45;&gt;6</title>
<path fill="none" stroke="black" d="M695.41,-301.17C834.56,-281.7 1462.93,-193.79 1637.75,-169.33"/>
<polygon fill="black" stroke="black" points="1638.15,-172.81 1647.57,-167.96 1637.18,-165.88 1638.15,-172.81"/>
</g>
<!-- 6&#45;&gt;5 -->
<g id="edge9" class="edge">
<title>6&#45;&gt;5</title>
<path fill="none" stroke="black" d="M1687.66,-143.59C1694.1,-119.5 1705.81,-75.75 1713.5,-47.03"/>
<polygon fill="black" stroke="black" points="1716.83,-48.14 1716.03,-37.57 1710.06,-46.33 1716.83,-48.14"/>
</g>
<!-- 7 -->
<g id="node8" class="node">
<title>7</title>
<polygon fill="none" stroke="black" points="1356,-612 1302,-612 1302,-576 1356,-576 1356,-612"/>
<text xml:space="preserve" text-anchor="middle" x="1329" y="-588.95" font-family="Times,serif" font-size="14.00">cli</text>
</g>
<!-- 8 -->
<g id="node9" class="node">
<title>8</title>
<polygon fill="none" stroke="black" points="940,-612 886,-612 886,-576 940,-576 940,-612"/>
<text xml:space="preserve" text-anchor="middle" x="913" y="-588.95" font-family="Times,serif" font-size="14.00">config</text>
</g>
<!-- 8&#45;&gt;1 -->
<g id="edge10" class="edge">
<title>8&#45;&gt;1</title>
<path fill="none" stroke="black" d="M885.54,-582.14C775.92,-538.77 369.06,-377.83 233.94,-324.38"/>
<polygon fill="black" stroke="black" points="235.56,-321.26 224.98,-320.84 232.99,-327.77 235.56,-321.26"/>
</g>
<!-- 8&#45;&gt;4 -->
<g id="edge13" class="edge">
<title>8&#45;&gt;4</title>
<path fill="none" stroke="black" d="M905.08,-575.77C885.99,-534.24 839,-432 839,-432 839,-432 750.53,-367.33 700.86,-331.02"/>
<polygon fill="black" stroke="black" points="703.14,-328.35 693,-325.27 699.01,-334 703.14,-328.35"/>
</g>
<!-- 9 -->
<g id="node10" class="node">
<title>9</title>
<polygon fill="none" stroke="black" points="830,-468 772,-468 772,-432 830,-432 830,-468"/>
<text xml:space="preserve" text-anchor="middle" x="801" y="-444.95" font-family="Times,serif" font-size="14.00">k8s&#45;intf</text>
</g>
<!-- 8&#45;&gt;9 -->
<g id="edge11" class="edge">
<title>8&#45;&gt;9</title>
<path fill="none" stroke="black" d="M899.27,-575.59C879.85,-550.97 844.22,-505.8 821.62,-477.14"/>
<polygon fill="black" stroke="black" points="824.37,-474.98 815.43,-469.3 818.88,-479.32 824.37,-474.98"/>
</g>
<!-- 10 -->
<g id="node11" class="node">
<title>10</title>
<polygon fill="none" stroke="black" points="961,-324 907,-324 907,-288 961,-288 961,-324"/>
<text xml:space="preserve" text-anchor="middle" x="934" y="-300.95" font-family="Times,serif" font-size="14.00">lpm</text>
</g>
<!-- 8&#45;&gt;10 -->
<g id="edge12" class="edge">
<title>8&#45;&gt;10</title>
<path fill="none" stroke="black" d="M914.28,-575.54C917.79,-527.76 927.57,-394.51 931.9,-335.61"/>
<polygon fill="black" stroke="black" points="935.38,-335.97 932.62,-325.74 928.4,-335.46 935.38,-335.97"/>
</g>
<!-- 11 -->
<g id="node12" class="node">
<title>11</title>
<polygon fill="none" stroke="black" points="1343.88,-324 1288.12,-324 1288.12,-288 1343.88,-288 1343.88,-324"/>
<text xml:space="preserve" text-anchor="middle" x="1316" y="-300.95" font-family="Times,serif" font-size="14.00">tracectl</text>
</g>
<!-- 8&#45;&gt;11 -->
<g id="edge14" class="edge">
<title>8&#45;&gt;11</title>
<path fill="none" stroke="black" d="M937.6,-575.54C1006.82,-526.42 1203.33,-386.96 1282.42,-330.83"/>
<polygon fill="black" stroke="black" points="1284.1,-333.93 1290.23,-325.29 1280.05,-328.22 1284.1,-333.93"/>
</g>
<!-- 9&#45;&gt;1 -->
<g id="edge15" class="edge">
<title>9&#45;&gt;1</title>
<path fill="none" stroke="black" stroke-dasharray="1,5" d="M771.61,-437.38C764.05,-434.39 758,-432 758,-432 758,-432 368.22,-346.22 234.44,-316.78"/>
<polygon fill="black" stroke="black" points="235.41,-313.41 224.89,-314.68 233.9,-320.25 235.41,-313.41"/>
</g>
<!-- 9&#45;&gt;4 -->
<g id="edge17" class="edge">
<title>9&#45;&gt;4</title>
<path fill="none" stroke="black" stroke-dasharray="1,5" d="M784.69,-431.59C761.43,-406.76 718.59,-361.01 691.79,-332.4"/>
<polygon fill="black" stroke="black" points="694.45,-330.12 685.06,-325.22 689.34,-334.91 694.45,-330.12"/>
</g>
<!-- 9&#45;&gt;10 -->
<g id="edge16" class="edge">
<title>9&#45;&gt;10</title>
<path fill="none" stroke="black" stroke-dasharray="1,5" d="M817.31,-431.59C840.57,-406.76 883.41,-361.01 910.21,-332.4"/>
<polygon fill="black" stroke="black" points="912.66,-334.91 916.94,-325.22 907.55,-330.12 912.66,-334.91"/>
</g>
<!-- 9&#45;&gt;11 -->
<g id="edge18" class="edge">
<title>9&#45;&gt;11</title>
<path fill="none" stroke="black" d="M830.16,-440.96C917.56,-416.86 1177.4,-345.22 1276.76,-317.82"/>
<polygon fill="black" stroke="black" points="1277.62,-321.21 1286.33,-315.18 1275.76,-314.47 1277.62,-321.21"/>
</g>
<!-- 12 -->
<g id="node13" class="node">
<title>12</title>
<polygon fill="none" stroke="black" points="1059.75,-468 1000.25,-468 1000.25,-432 1059.75,-432 1059.75,-468"/>
<text xml:space="preserve" text-anchor="middle" x="1030" y="-444.95" font-family="Times,serif" font-size="14.00">pipeline</text>
</g>
<!-- 12&#45;&gt;2 -->
<g id="edge19" class="edge">
<title>12&#45;&gt;2</title>
<path fill="none" stroke="black" d="M1023.58,-431.77C1008.1,-390.24 970,-288 970,-288 970,-288 385,-194.25 228.25,-169.13"/>
<polygon fill="black" stroke="black" points="229.23,-165.74 218.8,-167.62 228.12,-172.65 229.23,-165.74"/>
</g>
<!-- 12&#45;&gt;4 -->
<g id="edge20" class="edge">
<title>12&#45;&gt;4</title>
<path fill="none" stroke="black" d="M999.76,-437.14C933.98,-411.33 778,-350.15 705.84,-321.84"/>
<polygon fill="black" stroke="black" points="707.41,-318.7 696.82,-318.3 704.85,-325.21 707.41,-318.7"/>
</g>
<!-- 12&#45;&gt;11 -->
<g id="edge21" class="edge">
<title>12&#45;&gt;11</title>
<path fill="none" stroke="black" d="M1060.07,-434.07C1112.45,-408.06 1220.35,-354.49 1277.89,-325.92"/>
<polygon fill="black" stroke="black" points="1279.27,-329.14 1286.67,-321.56 1276.16,-322.87 1279.27,-329.14"/>
</g>
<!-- 13 -->
<g id="node14" class="node">
<title>13</title>
<polygon fill="none" stroke="black" points="986.88,-1044 919.12,-1044 919.12,-1008 986.88,-1008 986.88,-1044"/>
<text xml:space="preserve" text-anchor="middle" x="953" y="-1020.95" font-family="Times,serif" font-size="14.00">dataplane</text>
</g>
<!-- 13&#45;&gt;0 -->
<g id="edge22" class="edge">
<title>13&#45;&gt;0</title>
<path fill="none" stroke="black" d="M918.62,-1019.63C765.5,-995.7 153,-900 153,-900 153,-900 153,-576 153,-576 153,-576 169.7,-516.34 180.03,-479.45"/>
<polygon fill="black" stroke="black" points="183.4,-480.41 182.73,-469.84 176.66,-478.52 183.4,-480.41"/>
</g>
<!-- 13&#45;&gt;2 -->
<g id="edge28" class="edge">
<title>13&#45;&gt;2</title>
<path fill="none" stroke="black" d="M918.71,-1019.67C765.25,-995.81 149,-900 149,-900 149,-900 91,-739 91,-739 91,-739 91,-739 91,-449 91,-449 144,-288 144,-288 144,-288 166.15,-227.82 179.71,-190.97"/>
<polygon fill="black" stroke="black" points="182.91,-192.39 183.08,-181.8 176.34,-189.98 182.91,-192.39"/>
</g>
<!-- 13&#45;&gt;4 -->
<g id="edge31" class="edge">
<title>13&#45;&gt;4</title>
<path fill="none" stroke="black" d="M918.72,-1014.13C822.87,-983.71 559,-900 559,-900 559,-900 388,-756 388,-756 388,-756 308,-468 308,-468 308,-468 308,-432 308,-432 308,-432 537.12,-352.44 629.79,-320.27"/>
<polygon fill="black" stroke="black" points="630.92,-323.58 639.22,-316.99 628.62,-316.97 630.92,-323.58"/>
</g>
<!-- 13&#45;&gt;5 -->
<g id="edge23" class="edge">
<title>13&#45;&gt;5</title>
<path fill="none" stroke="black" d="M987.26,-1015.09C1089.44,-985.52 1385,-900 1385,-900 1385,-900 1904,-739 1904,-739 1904,-739 1904,-739 1904,-305 1904,-305 1859,-144 1859,-144 1859,-144 1788.79,-80.4 1748.53,-43.93"/>
<polygon fill="black" stroke="black" points="1751.07,-41.52 1741.31,-37.4 1746.37,-46.7 1751.07,-41.52"/>
</g>
<!-- 13&#45;&gt;8 -->
<g id="edge24" class="edge">
<title>13&#45;&gt;8</title>
<path fill="none" stroke="black" d="M951.64,-1007.73C946.56,-943.21 929,-720 929,-720 929,-720 921.36,-660.34 916.64,-623.45"/>
<polygon fill="black" stroke="black" points="920.16,-623.36 915.42,-613.88 913.21,-624.25 920.16,-623.36"/>
</g>
<!-- 13&#45;&gt;11 -->
<g id="edge35" class="edge">
<title>13&#45;&gt;11</title>
<path fill="none" stroke="black" d="M987.33,-1013.46C1079.42,-982.52 1325,-900 1325,-900 1325,-900 1752,-739 1752,-739 1752,-739 1752,-739 1752,-593 1752,-593 1636,-432 1636,-432 1636,-432 1439.78,-355.35 1354.65,-322.1"/>
<polygon fill="black" stroke="black" points="1356.12,-318.91 1345.53,-318.53 1353.57,-325.43 1356.12,-318.91"/>
</g>
<!-- 13&#45;&gt;12 -->
<g id="edge32" class="edge">
<title>13&#45;&gt;12</title>
<path fill="none" stroke="black" d="M949.78,-1007.52C935.32,-928.91 877,-612 877,-612 877,-612 877,-576 877,-576 877,-576 955.5,-511.87 1000.04,-475.48"/>
<polygon fill="black" stroke="black" points="1002.02,-478.38 1007.55,-469.34 997.6,-472.95 1002.02,-478.38"/>
</g>
<!-- 14 -->
<g id="node15" class="node">
<title>14</title>
<polygon fill="none" stroke="black" points="1988,-900 1934,-900 1934,-864 1988,-864 1988,-900"/>
<text xml:space="preserve" text-anchor="middle" x="1961" y="-876.95" font-family="Times,serif" font-size="14.00">dpdk</text>
</g>
<!-- 13&#45;&gt;14 -->
<g id="edge25" class="edge">
<title>13&#45;&gt;14</title>
<path fill="none" stroke="black" d="M987.34,-1020.55C1159.25,-998.28 1918,-900 1918,-900 1918,-900 1919.89,-899.25 1922.87,-898.07"/>
<polygon fill="black" stroke="black" points="1924.1,-901.35 1932.12,-894.42 1921.53,-894.84 1924.1,-901.35"/>
</g>
<!-- 17 -->
<g id="node18" class="node">
<title>17</title>
<polygon fill="none" stroke="black" points="1723.5,-612 1650.5,-612 1650.5,-576 1723.5,-576 1723.5,-612"/>
<text xml:space="preserve" text-anchor="middle" x="1687" y="-588.95" font-family="Times,serif" font-size="14.00">flow&#45;entry</text>
</g>
<!-- 13&#45;&gt;17 -->
<g id="edge26" class="edge">
<title>13&#45;&gt;17</title>
<path fill="none" stroke="black" d="M987.25,-1011.62C1069.8,-979.38 1273,-900 1273,-900 1273,-900 1601,-756 1601,-756 1601,-756 1648,-668.01 1672.51,-622.12"/>
<polygon fill="black" stroke="black" points="1675.46,-624.03 1677.08,-613.56 1669.28,-620.74 1675.46,-624.03"/>
</g>
<!-- 18 -->
<g id="node19" class="node">
<title>18</title>
<polygon fill="none" stroke="black" points="1052.75,-756 981.25,-756 981.25,-720 1052.75,-720 1052.75,-756"/>
<text xml:space="preserve" text-anchor="middle" x="1017" y="-732.95" font-family="Times,serif" font-size="14.00">flow&#45;filter</text>
</g>
<!-- 13&#45;&gt;18 -->
<g id="edge27" class="edge">
<title>13&#45;&gt;18</title>
<path fill="none" stroke="black" d="M956.91,-1007.54C967.62,-959.66 997.54,-825.95 1010.68,-767.24"/>
<polygon fill="black" stroke="black" points="1014.05,-768.23 1012.81,-757.71 1007.21,-766.7 1014.05,-768.23"/>
</g>
<!-- 19 -->
<g id="node20" class="node">
<title>19</title>
<polygon fill="none" stroke="black" points="746,-900 692,-900 692,-864 746,-864 746,-900"/>
<text xml:space="preserve" text-anchor="middle" x="719" y="-876.95" font-family="Times,serif" font-size="14.00">mgmt</text>
</g>
<!-- 13&#45;&gt;19 -->
<g id="edge29" class="edge">
<title>13&#45;&gt;19</title>
<path fill="none" stroke="black" d="M924.31,-1007.59C882.01,-981.92 802.91,-933.92 756.2,-905.58"/>
<polygon fill="black" stroke="black" points="758.13,-902.65 747.77,-900.46 754.5,-908.64 758.13,-902.65"/>
</g>
<!-- 23 -->
<g id="node24" class="node">
<title>23</title>
<polygon fill="none" stroke="black" points="1592,-756 1538,-756 1538,-720 1592,-720 1592,-756"/>
<text xml:space="preserve" text-anchor="middle" x="1565" y="-732.95" font-family="Times,serif" font-size="14.00">nat</text>
</g>
<!-- 13&#45;&gt;23 -->
<g id="edge30" class="edge">
<title>13&#45;&gt;23</title>
<path fill="none" stroke="black" d="M987.22,-1009.01C1093.31,-959.43 1416.25,-808.51 1527.14,-756.69"/>
<polygon fill="black" stroke="black" points="1528.55,-759.9 1536.13,-752.49 1525.59,-753.55 1528.55,-759.9"/>
</g>
<!-- 24 -->
<g id="node25" class="node">
<title>24</title>
<polygon fill="none" stroke="black" points="1281.5,-756 1226.5,-756 1226.5,-720 1281.5,-720 1281.5,-756"/>
<text xml:space="preserve" text-anchor="middle" x="1254" y="-732.95" font-family="Times,serif" font-size="14.00">routing</text>
</g>
<!-- 13&#45;&gt;24 -->
<g id="edge33" class="edge">
<title>13&#45;&gt;24</title>
<path fill="none" stroke="black" d="M971.38,-1007.54C1022.71,-958.76 1167.81,-820.89 1227.67,-764.02"/>
<polygon fill="black" stroke="black" points="1229.93,-766.7 1234.77,-757.27 1225.11,-761.62 1229.93,-766.7"/>
</g>
<!-- 26 -->
<g id="node27" class="node">
<title>26</title>
<polygon fill="none" stroke="black" points="439,-612 385,-612 385,-576 439,-576 439,-612"/>
<text xml:space="preserve" text-anchor="middle" x="412" y="-588.95" font-family="Times,serif" font-size="14.00">stats</text>
</g>
<!-- 13&#45;&gt;26 -->
<g id="edge34" class="edge">
<title>13&#45;&gt;26</title>
<path fill="none" stroke="black" d="M918.8,-1009.17C846.15,-975.53 683,-900 683,-900 683,-900 413,-756 413,-756 413,-756 412.46,-669.85 412.18,-623.59"/>
<polygon fill="black" stroke="black" points="415.68,-623.72 412.12,-613.74 408.68,-623.76 415.68,-623.72"/>
</g>
<!-- 27 -->
<g id="node28" class="node">
<title>27</title>
<polygon fill="none" stroke="black" points="376.75,-468 317.25,-468 317.25,-432 376.75,-432 376.75,-468"/>
<text xml:space="preserve" text-anchor="middle" x="347" y="-444.95" font-family="Times,serif" font-size="14.00">vpcmap</text>
</g>
<!-- 13&#45;&gt;27 -->
<g id="edge36" class="edge">
<title>13&#45;&gt;27</title>
<path fill="none" stroke="black" d="M918.83,-1012.33C833.16,-980.55 616,-900 616,-900 616,-900 400,-756 400,-756 400,-756 366,-612 366,-612 366,-612 355.83,-525.85 350.37,-479.59"/>
<polygon fill="black" stroke="black" points="353.86,-479.25 349.21,-469.73 346.91,-480.07 353.86,-479.25"/>
</g>
<!-- 14&#45;&gt;4 -->
<g id="edge39" class="edge">
<title>14&#45;&gt;4</title>
<path fill="none" stroke="black" d="M1933.74,-878.12C1756.58,-859.44 776,-756 776,-756 776,-756 698.61,-434.24 674.85,-335.48"/>
<polygon fill="black" stroke="black" points="678.26,-334.7 672.52,-325.8 671.46,-336.34 678.26,-334.7"/>
</g>
<!-- 15 -->
<g id="node16" class="node">
<title>15</title>
<polygon fill="none" stroke="black" points="1996.38,-756 1931.62,-756 1931.62,-720 1996.38,-720 1996.38,-756"/>
<text xml:space="preserve" text-anchor="middle" x="1964" y="-732.95" font-family="Times,serif" font-size="14.00">dpdk&#45;sys</text>
</g>
<!-- 14&#45;&gt;15 -->
<g id="edge37" class="edge">
<title>14&#45;&gt;15</title>
<path fill="none" stroke="black" d="M1961.37,-863.59C1961.87,-839.61 1962.79,-796.14 1963.4,-767.42"/>
<polygon fill="black" stroke="black" points="1966.89,-767.7 1963.61,-757.62 1959.9,-767.55 1966.89,-767.7"/>
</g>
<!-- 16 -->
<g id="node17" class="node">
<title>16</title>
<polygon fill="none" stroke="black" points="2068,-756 2014,-756 2014,-720 2068,-720 2068,-756"/>
<text xml:space="preserve" text-anchor="middle" x="2041" y="-732.95" font-family="Times,serif" font-size="14.00">errno</text>
</g>
<!-- 14&#45;&gt;16 -->
<g id="edge38" class="edge">
<title>14&#45;&gt;16</title>
<path fill="none" stroke="black" d="M1970.81,-863.59C1984.56,-839.18 2009.69,-794.58 2025.85,-765.89"/>
<polygon fill="black" stroke="black" points="2028.76,-767.86 2030.62,-757.43 2022.66,-764.42 2028.76,-767.86"/>
</g>
<!-- 17&#45;&gt;4 -->
<g id="edge42" class="edge">
<title>17&#45;&gt;4</title>
<path fill="none" stroke="black" d="M1650.13,-582.65C1491.41,-538.11 867.16,-362.9 706.09,-317.69"/>
<polygon fill="black" stroke="black" points="707.33,-314.4 696.76,-315.07 705.44,-321.14 707.33,-314.4"/>
</g>
<!-- 17&#45;&gt;5 -->
<g id="edge40" class="edge">
<title>17&#45;&gt;5</title>
<path fill="none" stroke="black" d="M1688.81,-575.62C1692.38,-541.27 1700,-468 1700,-468 1700,-468 1726,-180 1726,-180 1726,-180 1726,-144 1726,-144 1726,-144 1723.61,-84.34 1722.14,-47.45"/>
<polygon fill="black" stroke="black" points="1725.65,-47.75 1721.76,-37.89 1718.66,-48.02 1725.65,-47.75"/>
</g>
<!-- 17&#45;&gt;6 -->
<g id="edge41" class="edge">
<title>17&#45;&gt;6</title>
<path fill="none" stroke="black" d="M1686.84,-575.61C1686.22,-509.55 1684.03,-273.78 1683.27,-191.54"/>
<polygon fill="black" stroke="black" points="1686.77,-191.61 1683.17,-181.65 1679.77,-191.68 1686.77,-191.61"/>
</g>
<!-- 17&#45;&gt;11 -->
<g id="edge44" class="edge">
<title>17&#45;&gt;11</title>
<path fill="none" stroke="black" d="M1679.19,-575.77C1660.36,-534.24 1614,-432 1614,-432 1614,-432 1435.11,-356.96 1354.54,-323.16"/>
<polygon fill="black" stroke="black" points="1356.27,-320.1 1345.7,-319.46 1353.57,-326.55 1356.27,-320.1"/>
</g>
<!-- 17&#45;&gt;12 -->
<g id="edge43" class="edge">
<title>17&#45;&gt;12</title>
<path fill="none" stroke="black" d="M1650.27,-585.06C1536.5,-560.47 1190.48,-485.69 1071.05,-459.87"/>
<polygon fill="black" stroke="black" points="1071.88,-456.47 1061.37,-457.78 1070.41,-463.31 1071.88,-456.47"/>
</g>
<!-- 18&#45;&gt;4 -->
<g id="edge47" class="edge">
<title>18&#45;&gt;4</title>
<path fill="none" stroke="black" d="M997.53,-719.62C959.07,-685.27 877,-612 877,-612 877,-612 763,-468 763,-468 763,-468 711.08,-380.01 684,-334.12"/>
<polygon fill="black" stroke="black" points="687.03,-332.37 678.94,-325.53 681,-335.92 687.03,-332.37"/>
</g>
<!-- 18&#45;&gt;8 -->
<g id="edge45" class="edge">
<title>18&#45;&gt;8</title>
<path fill="none" stroke="black" d="M1004.25,-719.59C986.22,-694.97 953.13,-649.8 932.15,-621.14"/>
<polygon fill="black" stroke="black" points="935.16,-619.33 926.43,-613.33 929.51,-623.47 935.16,-619.33"/>
</g>
<!-- 18&#45;&gt;10 -->
<g id="edge46" class="edge">
<title>18&#45;&gt;10</title>
<path fill="none" stroke="black" d="M1013.64,-719.61C1000.88,-653.49 955.29,-417.29 939.46,-335.29"/>
<polygon fill="black" stroke="black" points="942.93,-334.78 937.59,-325.62 936.05,-336.1 942.93,-334.78"/>
</g>
<!-- 18&#45;&gt;11 -->
<g id="edge49" class="edge">
<title>18&#45;&gt;11</title>
<path fill="none" stroke="black" d="M1029.17,-719.76C1071.11,-660.39 1207,-468 1207,-468 1207,-468 1267.08,-379.26 1298.03,-333.55"/>
<polygon fill="black" stroke="black" points="1300.78,-335.73 1303.49,-325.48 1294.98,-331.8 1300.78,-335.73"/>
</g>
<!-- 18&#45;&gt;12 -->
<g id="edge48" class="edge">
<title>18&#45;&gt;12</title>
<path fill="none" stroke="black" d="M1017.79,-719.54C1019.97,-671.76 1026.02,-538.51 1028.7,-479.61"/>
<polygon fill="black" stroke="black" points="1032.19,-479.89 1029.15,-469.74 1025.2,-479.57 1032.19,-479.89"/>
</g>
<!-- 19&#45;&gt;0 -->
<g id="edge50" class="edge">
<title>19&#45;&gt;0</title>
<path fill="none" stroke="black" d="M691.74,-873.46C594.02,-846.44 267,-756 267,-756 267,-756 229,-612 229,-612 229,-612 206.97,-525.48 195.2,-479.29"/>
<polygon fill="black" stroke="black" points="198.62,-478.52 192.76,-469.7 191.84,-480.25 198.62,-478.52"/>
</g>
<!-- 19&#45;&gt;2 -->
<g id="edge54" class="edge">
<title>19&#45;&gt;2</title>
<path fill="none" stroke="black" d="M691.53,-870.23C614.15,-839.91 400,-756 400,-756 400,-756 241.58,-308.66 199.93,-191.05"/>
<polygon fill="black" stroke="black" points="203.31,-190.11 196.68,-181.85 196.72,-192.45 203.31,-190.11"/>
</g>
<!-- 19&#45;&gt;4 -->
<g id="edge60" class="edge">
<title>19&#45;&gt;4</title>
<path fill="none" stroke="black" d="M692.03,-863.62C638.72,-829.27 525,-756 525,-756 525,-756 524,-612 524,-612 524,-612 524,-576 524,-576 524,-576 616.8,-402.65 653.4,-334.27"/>
<polygon fill="black" stroke="black" points="656.42,-336.04 658.06,-325.57 650.25,-332.74 656.42,-336.04"/>
</g>
<!-- 19&#45;&gt;5 -->
<g id="edge51" class="edge">
<title>19&#45;&gt;5</title>
<path fill="none" stroke="black" d="M691.88,-863.88C637.66,-829.65 521,-756 521,-756 521,-756 467,-451 467,-451 467,-451 467,-451 467,-305 467,-305 1127,-144 1127,-144 1127,-144 1523.12,-60.64 1668.4,-30.07"/>
<polygon fill="black" stroke="black" points="1668.69,-33.59 1677.75,-28.1 1667.24,-26.74 1668.69,-33.59"/>
</g>
<!-- 19&#45;&gt;8 -->
<g id="edge52" class="edge">
<title>19&#45;&gt;8</title>
<path fill="none" stroke="black" d="M738.33,-863.62C776.52,-829.27 858,-756 858,-756 858,-756 887.68,-669.11 903.44,-623"/>
<polygon fill="black" stroke="black" points="906.7,-624.26 906.62,-613.66 900.08,-621.99 906.7,-624.26"/>
</g>
<!-- 19&#45;&gt;9 -->
<g id="edge56" class="edge">
<title>19&#45;&gt;9</title>
<path fill="none" stroke="black" d="M722.32,-863.61C734.93,-797.49 779.97,-561.29 795.61,-479.29"/>
<polygon fill="black" stroke="black" points="799.01,-480.1 797.45,-469.62 792.14,-478.79 799.01,-480.1"/>
</g>
<!-- 19&#45;&gt;10 -->
<g id="edge58" class="edge">
<title>19&#45;&gt;10</title>
<path fill="none" stroke="black" d="M720.7,-863.67C728.78,-781.16 763,-432 763,-432 763,-432 851.47,-367.33 901.14,-331.02"/>
<polygon fill="black" stroke="black" points="902.99,-334 909,-325.27 898.86,-328.35 902.99,-334"/>
</g>
<!-- 19&#45;&gt;11 -->
<g id="edge64" class="edge">
<title>19&#45;&gt;11</title>
<path fill="none" stroke="black" d="M746.42,-871.4C830.02,-842.13 1076,-756 1076,-756 1076,-756 1233,-468 1233,-468 1233,-468 1278.17,-380.38 1301.87,-334.41"/>
<polygon fill="black" stroke="black" points="1304.95,-336.07 1306.42,-325.58 1298.73,-332.86 1304.95,-336.07"/>
</g>
<!-- 19&#45;&gt;18 -->
<g id="edge53" class="edge">
<title>19&#45;&gt;18</title>
<path fill="none" stroke="black" d="M746.24,-868.02C797.27,-843.7 907.83,-791.02 970.74,-761.04"/>
<polygon fill="black" stroke="black" points="971.9,-764.37 979.42,-756.91 968.89,-758.05 971.9,-764.37"/>
</g>
<!-- 20 -->
<g id="node21" class="node">
<title>20</title>
<polygon fill="none" stroke="black" points="652.5,-756 537.5,-756 537.5,-720 652.5,-720 652.5,-756"/>
<text xml:space="preserve" text-anchor="middle" x="595" y="-732.95" font-family="Times,serif" font-size="14.00">interface&#45;manager</text>
</g>
<!-- 19&#45;&gt;20 -->
<g id="edge55" class="edge">
<title>19&#45;&gt;20</title>
<path fill="none" stroke="black" d="M703.8,-863.59C682.2,-838.86 642.51,-793.41 617.5,-764.77"/>
<polygon fill="black" stroke="black" points="620.15,-762.48 610.94,-757.25 614.88,-767.09 620.15,-762.48"/>
</g>
<!-- 21 -->
<g id="node22" class="node">
<title>21</title>
<polygon fill="none" stroke="black" points="587,-612 533,-612 533,-576 587,-576 587,-612"/>
<text xml:space="preserve" text-anchor="middle" x="560" y="-588.95" font-family="Times,serif" font-size="14.00">rekon</text>
</g>
<!-- 19&#45;&gt;21 -->
<g id="edge61" class="edge">
<title>19&#45;&gt;21</title>
<path fill="none" stroke="black" d="M692.58,-863.62C640.37,-829.27 529,-756 529,-756 529,-756 529,-720 529,-720 529,-720 543.8,-660.34 552.94,-623.45"/>
<polygon fill="black" stroke="black" points="556.32,-624.4 555.33,-613.85 549.52,-622.71 556.32,-624.4"/>
</g>
<!-- 22 -->
<g id="node23" class="node">
<title>22</title>
<polygon fill="none" stroke="black" points="1093.75,-612 1034.25,-612 1034.25,-576 1093.75,-576 1093.75,-612"/>
<text xml:space="preserve" text-anchor="middle" x="1064" y="-588.95" font-family="Times,serif" font-size="14.00">k8s&#45;less</text>
</g>
<!-- 19&#45;&gt;22 -->
<g id="edge57" class="edge">
<title>19&#45;&gt;22</title>
<path fill="none" stroke="black" d="M746.49,-870.98C827.88,-841.32 1062,-756 1062,-756 1062,-756 1063.07,-669.85 1063.64,-623.59"/>
<polygon fill="black" stroke="black" points="1067.14,-623.79 1063.77,-613.74 1060.14,-623.7 1067.14,-623.79"/>
</g>
<!-- 19&#45;&gt;23 -->
<g id="edge59" class="edge">
<title>19&#45;&gt;23</title>
<path fill="none" stroke="black" d="M746.19,-876.44C870.12,-855.64 1381.65,-769.78 1526.57,-745.45"/>
<polygon fill="black" stroke="black" points="1527.14,-748.9 1536.42,-743.8 1525.98,-742 1527.14,-748.9"/>
</g>
<!-- 19&#45;&gt;24 -->
<g id="edge62" class="edge">
<title>19&#45;&gt;24</title>
<path fill="none" stroke="black" d="M746.21,-874.1C849.56,-847.9 1212,-756 1212,-756 1212,-756 1213.41,-755.43 1215.71,-754.5"/>
<polygon fill="black" stroke="black" points="1216.86,-757.81 1224.82,-750.81 1214.23,-751.32 1216.86,-757.81"/>
</g>
<!-- 19&#45;&gt;26 -->
<g id="edge63" class="edge">
<title>19&#45;&gt;26</title>
<path fill="none" stroke="black" d="M691.58,-869.58C617.52,-838.72 419,-756 419,-756 419,-756 415.25,-669.85 413.24,-623.59"/>
<polygon fill="black" stroke="black" points="416.75,-623.58 412.81,-613.74 409.75,-623.88 416.75,-623.58"/>
</g>
<!-- 19&#45;&gt;27 -->
<g id="edge65" class="edge">
<title>19&#45;&gt;27</title>
<path fill="none" stroke="black" d="M691.58,-869.8C616.47,-839.12 413,-756 413,-756 413,-756 376,-612 376,-612 376,-612 360.42,-525.48 352.1,-479.29"/>
<polygon fill="black" stroke="black" points="355.59,-478.94 350.37,-469.72 348.7,-480.18 355.59,-478.94"/>
</g>
<!-- 20&#45;&gt;4 -->
<g id="edge66" class="edge">
<title>20&#45;&gt;4</title>
<path fill="none" stroke="black" d="M596.19,-719.73C600.63,-655.21 616,-432 616,-432 616,-432 641.03,-371.82 656.36,-334.97"/>
<polygon fill="black" stroke="black" points="659.58,-336.36 660.19,-325.78 653.12,-333.67 659.58,-336.36"/>
</g>
<!-- 20&#45;&gt;21 -->
<g id="edge67" class="edge">
<title>20&#45;&gt;21</title>
<path fill="none" stroke="black" d="M590.71,-719.59C584.77,-695.5 573.99,-651.75 566.91,-623.03"/>
<polygon fill="black" stroke="black" points="570.37,-622.45 564.58,-613.58 563.57,-624.13 570.37,-622.45"/>
</g>
<!-- 22&#45;&gt;9 -->
<g id="edge68" class="edge">
<title>22&#45;&gt;9</title>
<path fill="none" stroke="black" d="M1033.83,-576.71C986.14,-550.96 893.34,-500.86 840.44,-472.29"/>
<polygon fill="black" stroke="black" points="842.21,-469.27 831.75,-467.6 838.88,-475.43 842.21,-469.27"/>
</g>
<!-- 22&#45;&gt;11 -->
<g id="edge69" class="edge">
<title>22&#45;&gt;11</title>
<path fill="none" stroke="black" d="M1079.85,-575.62C1111.18,-541.27 1178,-468 1178,-468 1178,-468 1255.02,-378.14 1293.98,-332.69"/>
<polygon fill="black" stroke="black" points="1296.4,-335.25 1300.25,-325.38 1291.08,-330.69 1296.4,-335.25"/>
</g>
<!-- 23&#45;&gt;4 -->
<g id="edge75" class="edge">
<title>23&#45;&gt;4</title>
<path fill="none" stroke="black" d="M1559.22,-719.77C1545.29,-678.24 1511,-576 1511,-576 1511,-576 1112,-468 1112,-468 1112,-468 1069,-432 1069,-432 1069,-432 806.15,-350.06 706.07,-318.87"/>
<polygon fill="black" stroke="black" points="707.28,-315.58 696.69,-315.94 705.2,-322.26 707.28,-315.58"/>
</g>
<!-- 23&#45;&gt;5 -->
<g id="edge70" class="edge">
<title>23&#45;&gt;5</title>
<path fill="none" stroke="black" d="M1592.32,-724.67C1662.2,-693.14 1842,-612 1842,-612 1842,-612 1866,-451 1866,-451 1866,-451 1866,-451 1866,-305 1866,-305 1842,-144 1842,-144 1842,-144 1781.21,-81.2 1745.81,-44.63"/>
<polygon fill="black" stroke="black" points="1748.35,-42.22 1738.88,-37.47 1743.32,-47.09 1748.35,-42.22"/>
</g>
<!-- 23&#45;&gt;6 -->
<g id="edge73" class="edge">
<title>23&#45;&gt;6</title>
<path fill="none" stroke="black" d="M1588.36,-719.62C1634.52,-685.27 1733,-612 1733,-612 1733,-612 1733,-576 1733,-576 1733,-576 1697.86,-285.74 1686.5,-191.89"/>
<polygon fill="black" stroke="black" points="1689.98,-191.49 1685.3,-181.98 1683.03,-192.33 1689.98,-191.49"/>
</g>
<!-- 23&#45;&gt;8 -->
<g id="edge71" class="edge">
<title>23&#45;&gt;8</title>
<path fill="none" stroke="black" d="M1537.81,-731.08C1435.19,-708.73 1071.09,-629.43 951.42,-603.37"/>
<polygon fill="black" stroke="black" points="952.3,-599.98 941.78,-601.27 950.81,-606.82 952.3,-599.98"/>
</g>
<!-- 23&#45;&gt;10 -->
<g id="edge74" class="edge">
<title>23&#45;&gt;10</title>
<path fill="none" stroke="black" d="M1564.46,-719.77C1563.18,-678.24 1560,-576 1560,-576 1560,-576 1106.67,-381.2 971.56,-323.14"/>
<polygon fill="black" stroke="black" points="973.26,-320.06 962.69,-319.33 970.5,-326.49 973.26,-320.06"/>
</g>
<!-- 23&#45;&gt;11 -->
<g id="edge77" class="edge">
<title>23&#45;&gt;11</title>
<path fill="none" stroke="black" d="M1569.59,-719.62C1578.66,-685.27 1598,-612 1598,-612 1598,-612 1598,-576 1598,-576 1598,-576 1411.76,-398.34 1341.98,-331.78"/>
<polygon fill="black" stroke="black" points="1344.82,-329.65 1335.16,-325.28 1339.98,-334.72 1344.82,-329.65"/>
</g>
<!-- 23&#45;&gt;12 -->
<g id="edge76" class="edge">
<title>23&#45;&gt;12</title>
<path fill="none" stroke="black" d="M1556.87,-719.77C1537.26,-678.24 1489,-576 1489,-576 1489,-576 1074,-468 1074,-468 1074,-468 1072.64,-467.47 1070.4,-466.61"/>
<polygon fill="black" stroke="black" points="1072.08,-463.51 1061.49,-463.17 1069.56,-470.04 1072.08,-463.51"/>
</g>
<!-- 23&#45;&gt;17 -->
<g id="edge72" class="edge">
<title>23&#45;&gt;17</title>
<path fill="none" stroke="black" d="M1579.96,-719.59C1601.2,-694.86 1640.26,-649.41 1664.86,-620.77"/>
<polygon fill="black" stroke="black" points="1667.45,-623.12 1671.31,-613.26 1662.14,-618.56 1667.45,-623.12"/>
</g>
<!-- 24&#45;&gt;0 -->
<g id="edge78" class="edge">
<title>24&#45;&gt;0</title>
<path fill="none" stroke="black" d="M1226.27,-733.05C1077.03,-711.8 376,-612 376,-612 376,-612 269.32,-520.64 216.68,-475.56"/>
<polygon fill="black" stroke="black" points="219.14,-473.06 209.27,-469.21 214.59,-478.38 219.14,-473.06"/>
</g>
<!-- 24&#45;&gt;4 -->
<g id="edge84" class="edge">
<title>24&#45;&gt;4</title>
<path fill="none" stroke="black" d="M1237.84,-719.77C1198.89,-678.24 1103,-576 1103,-576 1103,-576 809.67,-394.61 704.76,-329.73"/>
<polygon fill="black" stroke="black" points="706.84,-326.91 696.5,-324.62 703.16,-332.86 706.84,-326.91"/>
</g>
<!-- 24&#45;&gt;5 -->
<g id="edge80" class="edge">
<title>24&#45;&gt;5</title>
<path fill="none" stroke="black" d="M1281.82,-729.74C1384.05,-703.06 1733,-612 1733,-612 1733,-612 1828,-451 1828,-451 1828,-451 1828,-451 1828,-305 1828,-305 1758.41,-118.99 1731.47,-46.99"/>
<polygon fill="black" stroke="black" points="1734.84,-46.02 1728.06,-37.88 1728.29,-48.47 1734.84,-46.02"/>
</g>
<!-- 24&#45;&gt;7 -->
<g id="edge79" class="edge">
<title>24&#45;&gt;7</title>
<path fill="none" stroke="black" d="M1263.2,-719.59C1276.03,-695.29 1299.44,-650.97 1314.6,-622.27"/>
<polygon fill="black" stroke="black" points="1317.68,-623.93 1319.26,-613.45 1311.49,-620.66 1317.68,-623.93"/>
</g>
<!-- 24&#45;&gt;8 -->
<g id="edge81" class="edge">
<title>24&#45;&gt;8</title>
<path fill="none" stroke="black" d="M1226.09,-725.38C1165.1,-699.98 1019.83,-639.49 950.75,-610.72"/>
<polygon fill="black" stroke="black" points="952.31,-607.58 941.74,-606.97 949.62,-614.04 952.31,-607.58"/>
</g>
<!-- 24&#45;&gt;10 -->
<g id="edge83" class="edge">
<title>24&#45;&gt;10</title>
<path fill="none" stroke="black" d="M1245.44,-719.77C1224.8,-678.24 1174,-576 1174,-576 1174,-576 1069,-432 1069,-432 1069,-432 1000.6,-368.67 961.18,-332.16"/>
<polygon fill="black" stroke="black" points="963.6,-329.63 953.88,-325.41 958.84,-334.77 963.6,-329.63"/>
</g>
<!-- 24&#45;&gt;11 -->
<g id="edge85" class="edge">
<title>24&#45;&gt;11</title>
<path fill="none" stroke="black" d="M1258.17,-719.77C1268.23,-678.24 1293,-576 1293,-576 1293,-576 1368,-468 1368,-468 1368,-468 1368,-432 1368,-432 1368,-432 1342.97,-371.82 1327.64,-334.97"/>
<polygon fill="black" stroke="black" points="1330.88,-333.67 1323.81,-325.78 1324.42,-336.36 1330.88,-333.67"/>
</g>
<!-- 25 -->
<g id="node26" class="node">
<title>25</title>
<polygon fill="none" stroke="black" points="1480.38,-612 1373.62,-612 1373.62,-576 1480.38,-576 1480.38,-612"/>
<text xml:space="preserve" text-anchor="middle" x="1427" y="-588.95" font-family="Times,serif" font-size="14.00">left&#45;right&#45;tlcache</text>
</g>
<!-- 24&#45;&gt;25 -->
<g id="edge82" class="edge">
<title>24&#45;&gt;25</title>
<path fill="none" stroke="black" d="M1275.21,-719.59C1305.78,-694.5 1362.33,-648.08 1397.12,-619.53"/>
<polygon fill="black" stroke="black" points="1399.21,-622.34 1404.71,-613.29 1394.76,-616.93 1399.21,-622.34"/>
</g>
<!-- 26&#45;&gt;4 -->
<g id="edge87" class="edge">
<title>26&#45;&gt;4</title>
<path fill="none" stroke="black" d="M420.45,-575.77C440.83,-534.24 491,-432 491,-432 491,-432 582.95,-367.06 634.3,-330.8"/>
<polygon fill="black" stroke="black" points="636,-333.88 642.15,-325.25 631.97,-328.16 636,-333.88"/>
</g>
<!-- 26&#45;&gt;5 -->
<g id="edge86" class="edge">
<title>26&#45;&gt;5</title>
<path fill="none" stroke="black" d="M384.65,-584.7C292.63,-556.78 0,-468 0,-468 0,-468 0,-432 0,-432 0,-432 39,-144 39,-144 39,-144 1382.89,-44.13 1668.18,-22.93"/>
<polygon fill="black" stroke="black" points="1668.2,-26.43 1677.91,-22.2 1667.68,-19.45 1668.2,-26.43"/>
</g>
<!-- 26&#45;&gt;11 -->
<g id="edge89" class="edge">
<title>26&#45;&gt;11</title>
<path fill="none" stroke="black" d="M439.25,-580.5C521.72,-542.67 763,-432 763,-432 763,-432 1150.55,-344.4 1276.78,-315.87"/>
<polygon fill="black" stroke="black" points="1277.36,-319.32 1286.34,-313.7 1275.81,-312.5 1277.36,-319.32"/>
</g>
<!-- 26&#45;&gt;12 -->
<g id="edge88" class="edge">
<title>26&#45;&gt;12</title>
<path fill="none" stroke="black" d="M439.35,-586.72C537.47,-564.17 872.09,-487.28 989.16,-460.38"/>
<polygon fill="black" stroke="black" points="989.67,-463.86 998.64,-458.21 988.11,-457.03 989.67,-463.86"/>
</g>
<!-- 26&#45;&gt;27 -->
<g id="edge90" class="edge">
<title>26&#45;&gt;27</title>
<path fill="none" stroke="black" d="M404.03,-575.59C392.91,-551.29 372.62,-506.97 359.48,-478.27"/>
<polygon fill="black" stroke="black" points="362.81,-477.12 355.46,-469.49 356.44,-480.04 362.81,-477.12"/>
</g>
<!-- 27&#45;&gt;4 -->
<g id="edge91" class="edge">
<title>27&#45;&gt;4</title>
<path fill="none" stroke="black" d="M377.2,-435.64C436.07,-409.6 566.02,-352.11 630.37,-323.64"/>
<polygon fill="black" stroke="black" points="631.74,-326.87 639.47,-319.62 628.91,-320.46 631.74,-326.87"/>
</g>
<!-- 28 -->
<g id="node29" class="node">
<title>28</title>
<polygon fill="none" stroke="black" points="63,-468 9,-468 9,-432 63,-432 63,-468"/>
<text xml:space="preserve" text-anchor="middle" x="36" y="-444.95" font-family="Times,serif" font-size="14.00">init</text>
</g>
<!-- 28&#45;&gt;1 -->
<g id="edge92" class="edge">
<title>28&#45;&gt;1</title>
<path fill="none" stroke="black" d="M54.88,-431.59C82.05,-406.54 132.28,-360.22 163.25,-331.66"/>
<polygon fill="black" stroke="black" points="165.35,-334.49 170.33,-325.14 160.61,-329.34 165.35,-334.49"/>
</g>
<!-- 28&#45;&gt;2 -->
<g id="edge93" class="edge">
<title>28&#45;&gt;2</title>
<path fill="none" stroke="black" d="M40.39,-431.77C50.96,-390.24 77,-288 77,-288 77,-288 133.77,-225.2 166.83,-188.63"/>
<polygon fill="black" stroke="black" points="169.16,-191.27 173.27,-181.5 163.97,-186.57 169.16,-191.27"/>
</g>
<!-- 28&#45;&gt;3 -->
<g id="edge94" class="edge">
<title>28&#45;&gt;3</title>
<path fill="none" stroke="black" d="M36.32,-431.77C37.09,-390.24 39,-288 39,-288 39,-288 56.33,-227.82 66.94,-190.97"/>
<polygon fill="black" stroke="black" points="70.17,-192.41 69.58,-181.84 63.44,-190.48 70.17,-192.41"/>
</g>
<!-- 29 -->
<g id="node30" class="node">
<title>29</title>
<polygon fill="none" stroke="black" points="849,-756 785,-756 785,-720 849,-720 849,-756"/>
<text xml:space="preserve" text-anchor="middle" x="817" y="-732.95" font-family="Times,serif" font-size="14.00">validator</text>
</g>
<!-- 29&#45;&gt;8 -->
<g id="edge95" class="edge">
<title>29&#45;&gt;8</title>
<path fill="none" stroke="black" d="M828.77,-719.59C845.34,-695.08 875.69,-650.19 895.07,-621.52"/>
<polygon fill="black" stroke="black" points="897.88,-623.61 900.58,-613.36 892.08,-619.69 897.88,-623.61"/>
</g>
<!-- 29&#45;&gt;9 -->
<g id="edge96" class="edge">
<title>29&#45;&gt;9</title>
<path fill="none" stroke="black" d="M815.47,-719.62C812.45,-685.27 806,-612 806,-612 806,-612 803.32,-525.85 801.89,-479.59"/>
<polygon fill="black" stroke="black" points="805.39,-479.63 801.58,-469.74 798.39,-479.85 805.39,-479.63"/>
</g>
</g>
</svg>
